<svg xmlns="http://www.w3.org/2000/svg" viewBox="0 0 800 534" width="800" height="534" role="img" aria-label="A retro-bright LinkedIn profile optimisation dashboard showing profile strength meter, keyword density, and section improvement checklist">
  <defs>
    <filter id="bt" x="-5%" y="-5%" width="110%" height="115%">
      <feDropShadow dx="0" dy="2" stdDeviation="3" flood-color="#9e3b2e" flood-opacity="0.12"/>
    </filter>
  </defs>
  <rect width="800" height="534" fill="#f6f2ee"/>
  <rect x="0" y="0" width="800" height="6" fill="#d35b2d"/>
  <rect x="24" y="22" width="752" height="490" rx="14" fill="#e8e3dc" stroke="#c9bfb2" stroke-width="1.5" filter="url(#bt)"/>
  <rect x="24" y="22" width="752" height="52" rx="14" fill="#d35b2d"/>
  <rect x="24" y="52" width="752" height="22" fill="#d35b2d"/>
  <text x="48" y="54" font-family="Georgia, serif" font-size="18" font-weight="bold" fill="#f6f2ee" letter-spacing="0.5">Blinkin Tuner</text>
  <text x="48" y="70" font-family="Georgia, serif" font-size="11" fill="#f6f2ee" opacity="0.8" font-style="italic">LinkedIn profile polish — where recruiters actually look.</text>
  <circle cx="720" cy="38" r="7" fill="#f6f2ee" opacity="0.3"/>
  <circle cx="738" cy="38" r="7" fill="#f6f2ee" opacity="0.5"/>
  <circle cx="756" cy="38" r="7" fill="#f6f2ee" opacity="0.7"/>
  <rect x="40" y="88" width="300" height="200" rx="10" fill="#fff" stroke="#c9bfb2" stroke-width="1"/>
  <rect x="40" y="88" width="300" height="60" rx="10" fill="#2d7c7c"/>
  <circle cx="110" cy="152" r="32" fill="#e8e3dc" stroke="#fff" stroke-width="3"/>
  <circle cx="110" cy="148" r="16" fill="#c9bfb2" opacity="0.5"/>
  <ellipse cx="110" cy="172" rx="22" ry="12" fill="#c9bfb2" opacity="0.4"/>
  <text x="155" y="155" font-family="Georgia, serif" font-size="12" fill="#3a3530" text-anchor="start" font-weight="bold">Jane Doe</text>
  <text x="155" y="169" font-family="Georgia, serif" font-size="9" fill="#2d7c7c" text-anchor="start">UX Researcher · Open to work</text>
  <text x="155" y="183" font-family="Georgia, serif" font-size="8" fill="#c9bfb2" text-anchor="start">Portland, OR · 412 connections</text>
  <text x="155" y="197" font-family="Georgia, serif" font-size="8" fill="#c9bfb2" text-anchor="start">Bloom Studio · Brighton MSc</text>
  <rect x="40" y="260" width="300" height="22" rx="6" fill="#6b7c3f"/>
  <text x="190" y="275" font-family="Georgia, serif" font-size="8" fill="#f6f2ee" text-anchor="middle">#OpenToWork · Full-time · Remote</text>
  <rect x="40" y="294" width="300" height="80" rx="10" fill="#f6f2ee" stroke="#c9bfb2" stroke-width="1"/>
  <text x="60" y="316" font-family="Georgia, serif" font-size="10" fill="#9e3b2e" text-anchor="start" font-weight="bold">Profile Strength</text>
  <rect x="60" y="324" width="260" height="14" rx="3" fill="#e8e3dc"/>
  <rect x="60" y="324" width="195" height="14" rx="3" fill="#c9922d"/>
  <text x="60" y="352" font-family="Georgia, serif" font-size="8" fill="#c9922d" text-anchor="start">All-Star · 75% complete (+22% today)</text>
  <text x="60" y="366" font-family="Georgia, serif" font-size="8" fill="#c9bfb2" text-anchor="start">Missing: 3 skills, 1 recommendation</text>
  <rect x="40" y="388" width="300" height="100" rx="10" fill="#fff" stroke="#c9bfb2" stroke-width="1"/>
  <text x="60" y="408" font-family="Georgia, serif" font-size="9" fill="#9e3b2e" text-anchor="start" font-weight="bold">Section Scores:</text>
  <text x="60" y="426" font-family="Georgia, serif" font-size="9" fill="#3a3530" text-anchor="start">Headline</text>
  <rect x="130" y="418" width="180" height="8" rx="3" fill="#e8e3dc"/>
  <rect x="130" y="418" width="162" height="8" rx="3" fill="#6b7c3f"/>
  <text x="60" y="446" font-family="Georgia, serif" font-size="9" fill="#3a3530" text-anchor="start">About</text>
  <rect x="130" y="438" width="180" height="8" rx="3" fill="#e8e3dc"/>
  <rect x="130" y="438" width="126" height="8" rx="3" fill="#c9922d"/>
  <text x="60" y="466" font-family="Georgia, serif" font-size="9" fill="#3a3530" text-anchor="start">Experience</text>
  <rect x="130" y="458" width="180" height="8" rx="3" fill="#e8e3dc"/>
  <rect x="130" y="458" width="144" height="8" rx="3" fill="#6b7c3f"/>
  <text x="60" y="486" font-family="Georgia, serif" font-size="9" fill="#3a3530" text-anchor="start">Skills</text>
  <rect x="130" y="478" width="180" height="8" rx="3" fill="#e8e3dc"/>
  <rect x="130" y="478" width="90" height="8" rx="3" fill="#d35b2d"/>
  <rect x="360" y="88" width="408" height="200" rx="10" fill="#fff" stroke="#c9bfb2" stroke-width="1"/>
  <text x="380" y="112" font-family="Georgia, serif" font-size="11" fill="#9e3b2e" text-anchor="start" font-weight="bold">Headline Rewrites</text>
  <rect x="380" y="120" width="368" height="40" rx="6" fill="#f6f2ee" stroke="#c9bfb2" stroke-width="1"/>
  <text x="390" y="135" font-family="Georgia, serif" font-size="9" fill="#c9bfb2" text-anchor="start" font-style="italic">Before: UX Researcher at Bloom Studio</text>
  <text x="390" y="150" font-family="Georgia, serif" font-size="8" fill="#c9bfb2" text-anchor="start" font-style="italic">(generic · no keywords · no value prop)</text>
  <rect x="380" y="168" width="368" height="40" rx="6" fill="#d35b2d"/>
  <text x="390" y="183" font-family="Georgia, serif" font-size="9" fill="#f6f2ee" text-anchor="start" font-weight="bold">After: Mixed-Methods UX Researcher | Research to Decisions</text>
  <text x="390" y="197" font-family="Georgia, serif" font-size="9" fill="#f6f2ee" text-anchor="start" font-weight="bold">| Open to Work</text>
  <text x="380" y="226" font-family="Georgia, serif" font-size="9" fill="#9e3b2e" text-anchor="start" font-weight="bold">Keywords recruiters search for:</text>
  <rect x="380" y="232" width="100" height="18" rx="9" fill="#d35b2d"/>
  <text x="430" y="243" font-family="Georgia, serif" font-size="8" fill="#f6f2ee" text-anchor="middle">UX Research</text>
  <rect x="488" y="232" width="68" height="18" rx="9" fill="#6b7c3f"/>
  <text x="522" y="243" font-family="Georgia, serif" font-size="8" fill="#f6f2ee" text-anchor="middle">Dovetail</text>
  <rect x="564" y="232" width="72" height="18" rx="9" fill="#2d7c7c"/>
  <text x="600" y="243" font-family="Georgia, serif" font-size="8" fill="#f6f2ee" text-anchor="middle">Synthesis</text>
  <rect x="380" y="256" width="112" height="18" rx="9" fill="#c9922d"/>
  <text x="436" y="267" font-family="Georgia, serif" font-size="8" fill="#f6f2ee" text-anchor="middle">Mixed-Methods</text>
  <rect x="500" y="256" width="90" height="18" rx="9" fill="#9e3b2e"/>
  <text x="545" y="267" font-family="Georgia, serif" font-size="8" fill="#f6f2ee" text-anchor="middle">Discovery</text>
  <text x="380" y="284" font-family="Georgia, serif" font-size="8" fill="#c9922d" text-anchor="start">About section: ⚠ 3 first-person rewrites needed</text>
  <text x="380" y="298" font-family="Georgia, serif" font-size="8" fill="#6b7c3f" text-anchor="start">Experience bullets: ✓ 4 quantified, 2 to improve</text>
  <rect x="360" y="302" width="408" height="192" rx="10" fill="#f6f2ee" stroke="#c9bfb2" stroke-width="1"/>
  <text x="380" y="326" font-family="Georgia, serif" font-size="10" fill="#9e3b2e" text-anchor="start" font-weight="bold">Quick-win checklist:</text>
  <rect x="380" y="336" width="12" height="12" rx="2" fill="#6b7c3f"/>
  <text x="386" y="346" font-family="Georgia, serif" font-size="8" fill="#fff" text-anchor="middle">✓</text>
  <text x="398" y="346" font-family="Georgia, serif" font-size="9" fill="#3a3530" text-anchor="start">Add 5 more endorsed skills (aim for 15 min.)</text>
  <rect x="380" y="358" width="12" height="12" rx="2" fill="#6b7c3f"/>
  <text x="386" y="368" font-family="Georgia, serif" font-size="8" fill="#fff" text-anchor="middle">✓</text>
  <text x="398" y="368" font-family="Georgia, serif" font-size="9" fill="#3a3530" text-anchor="start">Request 2 recommendations from recent managers</text>
  <rect x="380" y="380" width="12" height="12" rx="2" fill="#c9922d"/>
  <text x="386" y="390" font-family="Georgia, serif" font-size="8" fill="#fff" text-anchor="middle">→</text>
  <text x="398" y="390" font-family="Georgia, serif" font-size="9" fill="#3a3530" text-anchor="start">Rewrite About section with headline keywords</text>
  <rect x="380" y="402" width="12" height="12" rx="2" fill="#e8e3dc" stroke="#c9bfb2" stroke-width="1"/>
  <text x="398" y="412" font-family="Georgia, serif" font-size="9" fill="#c9bfb2" text-anchor="start">Add 3 portfolio media samples to Experience</text>
  <rect x="380" y="424" width="12" height="12" rx="2" fill="#e8e3dc" stroke="#c9bfb2" stroke-width="1"/>
  <text x="398" y="434" font-family="Georgia, serif" font-size="9" fill="#c9bfb2" text-anchor="start">Pin 1 featured post (write it this week)</text>
  <text x="380" y="470" font-family="Georgia, serif" font-size="9" fill="#6b7c3f" text-anchor="start" font-weight="bold">Recruiter search appearances: +340% potential uplift</text>
  <text x="760" y="520" font-family="Georgia, serif" font-size="8" fill="#c9bfb2" text-anchor="end">via Blinkin Tuner · Glee-fully Toolbox</text>
</svg>