<svg xmlns="http://www.w3.org/2000/svg" viewBox="0 0 800 534" width="800" height="534" role="img" aria-label="A retro-bright bookshelf illustration showing colourful book spines with reading tracker and recommendation card">
  <defs>
    <filter id="pl" x="-5%" y="-5%" width="110%" height="115%">
      <feDropShadow dx="0" dy="2" stdDeviation="3" flood-color="#9e3b2e" flood-opacity="0.12"/>
    </filter>
  </defs>
  <rect width="800" height="534" fill="#f6f2ee"/>
  <rect x="0" y="0" width="800" height="6" fill="#d35b2d"/>
  <rect x="24" y="22" width="752" height="490" rx="14" fill="#e8e3dc" stroke="#c9bfb2" stroke-width="1.5" filter="url(#pl)"/>
  <rect x="24" y="22" width="752" height="52" rx="14" fill="#d35b2d"/>
  <rect x="24" y="52" width="752" height="22" fill="#d35b2d"/>
  <text x="48" y="54" font-family="Georgia, serif" font-size="18" font-weight="bold" fill="#f6f2ee" letter-spacing="0.5">Personal Librarian</text>
  <text x="48" y="70" font-family="Georgia, serif" font-size="11" fill="#f6f2ee" opacity="0.8" font-style="italic">Your reading life — catalogued, tracked, and lovingly curated.</text>
  <circle cx="720" cy="38" r="7" fill="#f6f2ee" opacity="0.3"/>
  <circle cx="738" cy="38" r="7" fill="#f6f2ee" opacity="0.5"/>
  <circle cx="756" cy="38" r="7" fill="#f6f2ee" opacity="0.7"/>
  <rect x="40" y="88" width="480" height="290" rx="10" fill="#fff" stroke="#c9bfb2" stroke-width="1"/>
  <rect x="40" y="220" width="480" height="8" rx="2" fill="#c9bfb2" stroke="#c9bfb2" stroke-width="1"/>
  <rect x="60" y="150" width="22" height="70" rx="2" fill="#d35b2d"/>
  <rect x="84" y="160" width="18" height="60" rx="2" fill="#6b7c3f"/>
  <rect x="104" y="155" width="26" height="65" rx="2" fill="#c9922d"/>
  <rect x="132" y="165" width="16" height="55" rx="2" fill="#2d7c7c"/>
  <rect x="150" y="150" width="24" height="70" rx="2" fill="#9e3b2e"/>
  <rect x="176" y="158" width="20" height="62" rx="2" fill="#6b7c3f"/>
  <rect x="198" y="152" width="28" height="68" rx="2" fill="#d35b2d"/>
  <rect x="228" y="163" width="18" height="57" rx="2" fill="#c9922d"/>
  <rect x="248" y="150" width="22" height="70" rx="2" fill="#2d7c7c"/>
  <rect x="272" y="158" width="24" height="62" rx="2" fill="#d35b2d"/>
  <rect x="298" y="154" width="16" height="66" rx="2" fill="#6b7c3f"/>
  <rect x="316" y="160" width="26" height="60" rx="2" fill="#c9bfb2"/>
  <rect x="344" y="148" width="20" height="72" rx="2" fill="#9e3b2e"/>
  <rect x="366" y="156" width="18" height="64" rx="2" fill="#c9922d"/>
  <rect x="386" y="152" width="24" height="68" rx="2" fill="#d35b2d"/>
  <rect x="412" y="162" width="18" height="58" rx="2" fill="#2d7c7c"/>
  <rect x="432" y="150" width="28" height="70" rx="2" fill="#6b7c3f"/>
  <rect x="462" y="158" width="20" height="62" rx="2" fill="#c9922d"/>
  <text x="71" y="198" font-family="Georgia, serif" font-size="7" fill="#f6f2ee" text-anchor="middle" font-style="italic">Piranesi</text>
  <text x="256" y="198" font-family="Georgia, serif" font-size="7" fill="#f6f2ee" text-anchor="middle" font-style="italic">Kindred</text>
  <text x="448" y="198" font-family="Georgia, serif" font-size="7" fill="#f6f2ee" text-anchor="middle" font-style="italic">Anansi Boys</text>
  <rect x="40" y="346" width="480" height="8" rx="2" fill="#c9bfb2" stroke="#c9bfb2" stroke-width="1"/>
  <rect x="60" y="276" width="20" height="70" rx="2" fill="#c9922d"/>
  <rect x="82" y="280" width="24" height="66" rx="2" fill="#d35b2d"/>
  <rect x="108" y="274" width="18" height="72" rx="2" fill="#6b7c3f"/>
  <rect x="128" y="282" width="26" height="64" rx="2" fill="#2d7c7c"/>
  <rect x="156" y="276" width="22" height="70" rx="2" fill="#9e3b2e"/>
  <rect x="180" y="284" width="18" height="62" rx="2" fill="#c9bfb2"/>
  <rect x="200" y="278" width="24" height="68" rx="2" fill="#d35b2d"/>
  <rect x="226" y="280" width="20" height="66" rx="2" fill="#6b7c3f"/>
  <rect x="248" y="274" width="28" height="72" rx="2" fill="#c9922d"/>
  <rect x="278" y="280" width="18" height="66" rx="2" fill="#2d7c7c"/>
  <rect x="298" y="276" width="22" height="70" rx="2" fill="#9e3b2e"/>
  <rect x="322" y="282" width="24" height="64" rx="2" fill="#d35b2d"/>
  <rect x="348" y="276" width="20" height="70" rx="2" fill="#6b7c3f"/>
  <rect x="370" y="280" width="18" height="66" rx="2" fill="#c9922d"/>
  <rect x="390" y="274" width="26" height="72" rx="2" fill="#d35b2d"/>
  <rect x="418" y="278" width="22" height="68" rx="2" fill="#2d7c7c"/>
  <rect x="442" y="282" width="20" height="64" rx="2" fill="#c9bfb2"/>
  <rect x="464" y="276" width="18" height="70" rx="2" fill="#9e3b2e"/>
  <rect x="40" y="360" width="480" height="110" rx="10" fill="#f6f2ee" stroke="#c9bfb2" stroke-width="1"/>
  <text x="60" y="384" font-family="Georgia, serif" font-size="10" fill="#9e3b2e" text-anchor="start" font-weight="bold">📚  Books read this year:</text>
  <text x="220" y="384" font-family="Georgia, serif" font-size="14" fill="#d35b2d" text-anchor="start" font-weight="bold">34</text>
  <rect x="60" y="392" width="250" height="10" rx="3" fill="#e8e3dc"/>
  <rect x="60" y="392" width="204" height="10" rx="3" fill="#d35b2d"/>
  <text x="60" y="416" font-family="Georgia, serif" font-size="8" fill="#d35b2d" text-anchor="start">Goal: 40 · 85% complete</text>
  <text x="60" y="434" font-family="Georgia, serif" font-size="8" fill="#c9bfb2" text-anchor="start">Genres: Literary Fiction, Sci-Fi, History, Non-fiction</text>
  <text x="60" y="450" font-family="Georgia, serif" font-size="8" fill="#c9bfb2" text-anchor="start">Average rating: 4.1 ⭐ · DNF rate: 8%</text>
  <rect x="540" y="88" width="224" height="190" rx="10" fill="#fff" stroke="#c9bfb2" stroke-width="1"/>
  <text x="560" y="112" font-family="Georgia, serif" font-size="11" fill="#9e3b2e" text-anchor="start" font-weight="bold">Next Pick 📖</text>
  <rect x="560" y="122" width="60" height="90" rx="4" fill="#6b7c3f"/>
  <text x="590" y="172" font-family="Georgia, serif" font-size="7" fill="#f6f2ee" text-anchor="middle">Tomorrow,</text>
  <text x="590" y="182" font-family="Georgia, serif" font-size="7" fill="#f6f2ee" text-anchor="middle">and Tomorrow</text>
  <text x="634" y="140" font-family="Georgia, serif" font-size="10" fill="#3a3530" text-anchor="start" font-weight="bold">Tomorrow,</text>
  <text x="634" y="154" font-family="Georgia, serif" font-size="10" fill="#3a3530" text-anchor="start" font-weight="bold">and Tomorrow</text>
  <text x="634" y="170" font-family="Georgia, serif" font-size="9" fill="#c9bfb2" text-anchor="start">Gabrielle Zevin</text>
  <text x="634" y="184" font-family="Georgia, serif" font-size="8" fill="#c9bfb2" text-anchor="start">Fiction · 402 pp</text>
  <text x="634" y="199" font-family="Georgia, serif" font-size="8" fill="#c9922d" text-anchor="start">⭐⭐⭐⭐⭐ predicted</text>
  <text x="560" y="220" font-family="Georgia, serif" font-size="8" fill="#3a3530" text-anchor="start">"You loved Piranesi and</text>
  <text x="560" y="234" font-family="Georgia, serif" font-size="8" fill="#3a3530" text-anchor="start">The Night Circus — this has</text>
  <text x="560" y="248" font-family="Georgia, serif" font-size="8" fill="#9e3b2e" text-anchor="start" font-style="italic">the same warm magic."</text>
  <text x="560" y="262" font-family="Georgia, serif" font-size="8" fill="#c9bfb2" text-anchor="start">— Personal Librarian</text>
  <rect x="540" y="296" width="224" height="160" rx="10" fill="#f6f2ee" stroke="#c9bfb2" stroke-width="1"/>
  <text x="560" y="320" font-family="Georgia, serif" font-size="10" fill="#9e3b2e" text-anchor="start" font-weight="bold">Lists &amp; shelves:</text>
  <text x="560" y="340" font-family="Georgia, serif" font-size="9" fill="#3a3530" text-anchor="start">📋  Want to read          48 books</text>
  <text x="560" y="358" font-family="Georgia, serif" font-size="9" fill="#3a3530" text-anchor="start">✅  Read this year        34 books</text>
  <text x="560" y="376" font-family="Georgia, serif" font-size="9" fill="#3a3530" text-anchor="start">❤️   All-time favourites  12 books</text>
  <text x="560" y="394" font-family="Georgia, serif" font-size="9" fill="#3a3530" text-anchor="start">📦  Own but unread       21 books</text>
  <text x="560" y="412" font-family="Georgia, serif" font-size="9" fill="#3a3530" text-anchor="start">🎁  Gift ideas              9 books</text>
  <text x="760" y="520" font-family="Georgia, serif" font-size="8" fill="#c9bfb2" text-anchor="end">via Personal Librarian · Glee-fully Toolbox</text>
</svg>