<svg xmlns="http://www.w3.org/2000/svg" viewBox="0 0 800 534" width="800" height="534" role="img" aria-label="A retro-bright gift wishlist organiser showing people-organised lists with budget tracking, occasion tags, and purchase status badges">
  <defs>
    <filter id="ph" x="-5%" y="-5%" width="110%" height="115%">
      <feDropShadow dx="0" dy="2" stdDeviation="3" flood-color="#9e3b2e" flood-opacity="0.12"/>
    </filter>
  </defs>
  <rect width="800" height="534" fill="#f6f2ee"/>
  <rect x="0" y="0" width="800" height="6" fill="#d35b2d"/>
  <rect x="24" y="22" width="752" height="490" rx="14" fill="#e8e3dc" stroke="#c9bfb2" stroke-width="1.5" filter="url(#ph)"/>
  <rect x="24" y="22" width="752" height="52" rx="14" fill="#d35b2d"/>
  <rect x="24" y="52" width="752" height="22" fill="#d35b2d"/>
  <text x="48" y="54" font-family="Georgia, serif" font-size="18" font-weight="bold" fill="#f6f2ee" letter-spacing="0.5">Present Hoarder</text>
  <text x="48" y="70" font-family="Georgia, serif" font-size="11" fill="#f6f2ee" opacity="0.8" font-style="italic">Never forget a great gift idea — or give a mediocre one.</text>
  <circle cx="720" cy="38" r="7" fill="#f6f2ee" opacity="0.3"/>
  <circle cx="738" cy="38" r="7" fill="#f6f2ee" opacity="0.5"/>
  <circle cx="756" cy="38" r="7" fill="#f6f2ee" opacity="0.7"/>
  <rect x="48" y="96" width="72" height="22" rx="11" fill="#d35b2d"/>
  <text x="84" y="110" font-family="Georgia, serif" font-size="9" fill="#f6f2ee" text-anchor="middle">Mum ❤️</text>
  <rect x="128" y="96" width="60" height="22" rx="11" fill="#e8e3dc"/>
  <text x="158" y="110" font-family="Georgia, serif" font-size="9" fill="#9e3b2e" text-anchor="middle">Dad</text>
  <rect x="196" y="96" width="68" height="22" rx="11" fill="#e8e3dc"/>
  <text x="230" y="110" font-family="Georgia, serif" font-size="9" fill="#9e3b2e" text-anchor="middle">Partner</text>
  <rect x="272" y="96" width="52" height="22" rx="11" fill="#e8e3dc"/>
  <text x="298" y="110" font-family="Georgia, serif" font-size="9" fill="#9e3b2e" text-anchor="middle">Sofia</text>
  <rect x="332" y="96" width="64" height="22" rx="11" fill="#e8e3dc"/>
  <text x="364" y="110" font-family="Georgia, serif" font-size="9" fill="#9e3b2e" text-anchor="middle">My list</text>
  <rect x="40" y="126" width="480" height="360" rx="10" fill="#fff" stroke="#c9bfb2" stroke-width="1"/>
  <rect x="40" y="126" width="480" height="28" rx="10" fill="#d35b2d"/>
  <text x="60" y="145" font-family="Georgia, serif" font-size="10" fill="#f6f2ee" text-anchor="start" font-weight="bold">🎂  Mum's Birthday · June 14 · Budget: £120</text>
  <rect x="60" y="162" width="440" height="52" rx="7" fill="#fff" stroke="#c9bfb2" stroke-width="1"/>
  <rect x="60" y="162" width="5" height="52" fill="#6b7c3f"/>
  <text x="74" y="181" font-family="Georgia, serif" font-size="10" fill="#3a3530" text-anchor="start" font-weight="bold">Silk pillowcase set — Mulberry Silk, ivory</text>
  <text x="74" y="196" font-family="Georgia, serif" font-size="8" fill="#c9bfb2" text-anchor="start">From: The White Company · £45 · Ships in 2 days</text>
  <rect x="410" y="170" width="74" height="18" rx="9" fill="#6b7c3f"/>
  <text x="447" y="181" font-family="Georgia, serif" font-size="8" fill="#f6f2ee" text-anchor="middle">✓ Purchased</text>
  <rect x="60" y="222" width="440" height="52" rx="7" fill="#fff" stroke="#c9bfb2" stroke-width="1"/>
  <rect x="60" y="222" width="5" height="52" fill="#c9922d"/>
  <text x="74" y="241" font-family="Georgia, serif" font-size="10" fill="#3a3530" text-anchor="start" font-weight="bold">Ottolenghi Plenty More — signed edition if poss.</text>
  <text x="74" y="256" font-family="Georgia, serif" font-size="8" fill="#c9bfb2" text-anchor="start">From: Waterstones · £25 · Signed copies available</text>
  <rect x="410" y="230" width="50" height="18" rx="9" fill="#c9922d"/>
  <text x="435" y="241" font-family="Georgia, serif" font-size="8" fill="#f6f2ee" text-anchor="middle">Saved</text>
  <rect x="60" y="282" width="440" height="52" rx="7" fill="#fff" stroke="#c9bfb2" stroke-width="1"/>
  <rect x="60" y="282" width="5" height="52" fill="#2d7c7c"/>
  <text x="74" y="301" font-family="Georgia, serif" font-size="10" fill="#3a3530" text-anchor="start" font-weight="bold">Weekend pottery class — she mentioned it twice</text>
  <text x="74" y="316" font-family="Georgia, serif" font-size="8" fill="#c9bfb2" text-anchor="start">From: Local studio or Obby.co.uk · ~£60 · Book early</text>
  <rect x="410" y="290" width="44" height="18" rx="9" fill="#2d7c7c"/>
  <text x="432" y="301" font-family="Georgia, serif" font-size="8" fill="#f6f2ee" text-anchor="middle">Idea</text>
  <rect x="60" y="342" width="440" height="52" rx="7" fill="#f6f2ee" stroke="#c9bfb2" stroke-width="1"/>
  <rect x="60" y="342" width="5" height="52" fill="#c9bfb2"/>
  <text x="74" y="361" font-family="Georgia, serif" font-size="10" fill="#c9bfb2" text-anchor="start" font-weight="bold">Cashmere cardigan — soft colours only (not black)</text>
  <text x="74" y="376" font-family="Georgia, serif" font-size="8" fill="#c9bfb2" text-anchor="start">Size 10–12 · Budget ~£50 · Check M&amp;S, Uniqlo</text>
  <text x="60" y="412" font-family="Georgia, serif" font-size="9" fill="#d35b2d" text-anchor="start" font-weight="bold" font-style="italic">+ Add another idea for Mum</text>
  <rect x="60" y="428" width="440" height="10" rx="3" fill="#e8e3dc"/>
  <rect x="60" y="428" width="280" height="10" rx="3" fill="#d35b2d"/>
  <text x="60" y="452" font-family="Georgia, serif" font-size="8" fill="#d35b2d" text-anchor="start">Spent: £45 · Committed: £85 · £35 remaining</text>
  <text x="60" y="466" font-family="Georgia, serif" font-size="8" fill="#c9bfb2" text-anchor="start">Time until birthday: 18 days  🎂</text>
  <rect x="540" y="126" width="224" height="200" rx="10" fill="#f6f2ee" stroke="#c9bfb2" stroke-width="1"/>
  <text x="560" y="150" font-family="Georgia, serif" font-size="11" fill="#9e3b2e" text-anchor="start" font-weight="bold">Gift tracker</text>
  <text x="560" y="170" font-family="Georgia, serif" font-size="9" fill="#3a3530" text-anchor="start">People tracked:     5</text>
  <text x="560" y="186" font-family="Georgia, serif" font-size="9" fill="#3a3530" text-anchor="start">Total ideas saved: 28</text>
  <text x="560" y="202" font-family="Georgia, serif" font-size="9" fill="#6b7c3f" text-anchor="start">Purchased:         11</text>
  <text x="560" y="218" font-family="Georgia, serif" font-size="9" fill="#c9922d" text-anchor="start">Still to buy:         9</text>
  <text x="560" y="236" font-family="Georgia, serif" font-size="9" fill="#9e3b2e" text-anchor="start" font-weight="bold">Occasions upcoming:</text>
  <text x="560" y="252" font-family="Georgia, serif" font-size="9" fill="#3a3530" text-anchor="start">🎂  Mum  → June 14</text>
  <text x="560" y="268" font-family="Georgia, serif" font-size="9" fill="#3a3530" text-anchor="start">🎄  Christmas → Dec 25</text>
  <text x="560" y="284" font-family="Georgia, serif" font-size="9" fill="#3a3530" text-anchor="start">💍  Anniversary → Aug 3</text>
  <text x="560" y="300" font-family="Georgia, serif" font-size="9" fill="#3a3530" text-anchor="start">🎓  Sofia grad → Jul 12</text>
  <rect x="540" y="340" width="224" height="144" rx="10" fill="#fff" stroke="#c9bfb2" stroke-width="1"/>
  <text x="560" y="364" font-family="Georgia, serif" font-size="10" fill="#9e3b2e" text-anchor="start" font-weight="bold">Ask me:</text>
  <text x="560" y="382" font-family="Georgia, serif" font-size="9" fill="#3a3530" text-anchor="start">"What should I get Dad</text>
  <text x="560" y="396" font-family="Georgia, serif" font-size="9" fill="#3a3530" text-anchor="start">for Father's Day? He likes</text>
  <text x="560" y="410" font-family="Georgia, serif" font-size="9" fill="#3a3530" text-anchor="start">hiking and history books,</text>
  <text x="560" y="424" font-family="Georgia, serif" font-size="9" fill="#3a3530" text-anchor="start">budget £80."</text>
  <rect x="560" y="438" width="188" height="34" rx="6" fill="#d35b2d"/>
  <text x="654" y="458" font-family="Georgia, serif" font-size="9" fill="#f6f2ee" text-anchor="middle" font-weight="bold">Get suggestions →</text>
  <text x="760" y="520" font-family="Georgia, serif" font-size="8" fill="#c9bfb2" text-anchor="end">via Present Hoarder · Glee-fully Toolbox</text>
</svg>