<svg xmlns="http://www.w3.org/2000/svg" viewBox="0 0 800 534" width="800" height="534" role="img" aria-label="A retro-bright fragrance journal showing a scent wheel with top, middle and base notes, a fragrance rating card, and a collection grid">
  <defs>
    <filter id="sj" x="-5%" y="-5%" width="110%" height="115%">
      <feDropShadow dx="0" dy="2" stdDeviation="3" flood-color="#9e3b2e" flood-opacity="0.12"/>
    </filter>
  </defs>
  <rect width="800" height="534" fill="#f6f2ee"/>
  <rect x="0" y="0" width="800" height="6" fill="#d35b2d"/>
  <rect x="24" y="22" width="752" height="490" rx="14" fill="#e8e3dc" stroke="#c9bfb2" stroke-width="1.5" filter="url(#sj)"/>
  <rect x="24" y="22" width="752" height="52" rx="14" fill="#d35b2d"/>
  <rect x="24" y="52" width="752" height="22" fill="#d35b2d"/>
  <text x="48" y="54" font-family="Georgia, serif" font-size="18" font-weight="bold" fill="#f6f2ee" letter-spacing="0.5">Scentinal Journal</text>
  <text x="48" y="70" font-family="Georgia, serif" font-size="11" fill="#f6f2ee" opacity="0.8" font-style="italic">Your fragrance memory — catalogued, compared, and curated.</text>
  <circle cx="720" cy="38" r="7" fill="#f6f2ee" opacity="0.3"/>
  <circle cx="738" cy="38" r="7" fill="#f6f2ee" opacity="0.5"/>
  <circle cx="756" cy="38" r="7" fill="#f6f2ee" opacity="0.7"/>
  <rect x="40" y="88" width="340" height="340" rx="10" fill="#fff" stroke="#c9bfb2" stroke-width="1"/>
  <text x="210" y="112" font-family="Georgia, serif" font-size="11" fill="#9e3b2e" text-anchor="middle" font-weight="bold">Scent Wheel</text>
  <circle cx="210" cy="240" r="120" fill="#f6f2ee" stroke="#c9bfb2" stroke-width="1"/>
  <circle cx="210" cy="240" r="80" fill="#e8e3dc" stroke="#c9bfb2" stroke-width="1"/>
  <circle cx="210" cy="240" r="40" fill="#d35b2d" stroke="#d35b2d" stroke-width="1" opacity="0.15"/>
  <path d="M210,120 A120,120 0 0,1 330,240 L210,240 Z" fill="#d35b2d" opacity="0.12"/>
  <path d="M210,240 L330,240 A120,120 0 0,1 150,356 Z" fill="#c9922d" opacity="0.12"/>
  <path d="M210,240 L150,356 A120,120 0 0,1 90,240 Z" fill="#6b7c3f" opacity="0.12"/>
  <path d="M210,240 L90,240 A120,120 0 0,1 210,120 Z" fill="#2d7c7c" opacity="0.12"/>
  <line x1="210" y1="120" x2="210" y2="240" stroke="#c9bfb2" stroke-width="0.5"/>
  <line x1="330" y1="240" x2="210" y2="240" stroke="#c9bfb2" stroke-width="0.5"/>
  <line x1="150" y1="356" x2="210" y2="240" stroke="#c9bfb2" stroke-width="0.5"/>
  <line x1="90" y1="240" x2="210" y2="240" stroke="#c9bfb2" stroke-width="0.5"/>
  <text x="210" y="108" font-family="Georgia, serif" font-size="8" fill="#d35b2d" text-anchor="middle" font-weight="bold">TOP</text>
  <text x="210" y="118" font-family="Georgia, serif" font-size="7" fill="#d35b2d" text-anchor="middle">Bergamot · Lemon</text>
  <text x="342" y="240" font-family="Georgia, serif" font-size="8" fill="#c9922d" text-anchor="start" font-weight="bold">MIDDLE</text>
  <text x="342" y="252" font-family="Georgia, serif" font-size="7" fill="#c9922d" text-anchor="start">Rose · Jasmine</text>
  <text x="156" y="374" font-family="Georgia, serif" font-size="8" fill="#6b7c3f" text-anchor="start" font-weight="bold">BASE</text>
  <text x="148" y="386" font-family="Georgia, serif" font-size="7" fill="#6b7c3f" text-anchor="start">Sandalwood · Musk</text>
  <text x="60" y="240" font-family="Georgia, serif" font-size="8" fill="#2d7c7c" text-anchor="end" font-weight="bold">FLORAL</text>
  <text x="68" y="252" font-family="Georgia, serif" font-size="7" fill="#2d7c7c" text-anchor="end">Peony · Iris</text>
  <circle cx="238" cy="152" r="6" fill="#d35b2d"/>
  <circle cx="288" cy="238" r="5" fill="#c9922d"/>
  <circle cx="172" cy="322" r="7" fill="#6b7c3f"/>
  <circle cx="134" cy="215" r="4" fill="#2d7c7c"/>
  <text x="210" y="236" font-family="Georgia, serif" font-size="9" fill="#9e3b2e" text-anchor="middle" font-weight="bold">Chanel</text>
  <text x="210" y="250" font-family="Georgia, serif" font-size="8" fill="#9e3b2e" text-anchor="middle">Chance Eau Tendre</text>
  <rect x="60" y="400" width="260" height="10" rx="3" fill="#e8e3dc"/>
  <rect x="60" y="400" width="195" height="10" rx="3" fill="#d35b2d"/>
  <text x="60" y="426" font-family="Georgia, serif" font-size="8" fill="#d35b2d" text-anchor="start">Longevity: 75% · Sillage: 60%</text>
  <rect x="400" y="88" width="364" height="176" rx="10" fill="#fff" stroke="#c9bfb2" stroke-width="1"/>
  <text x="420" y="112" font-family="Georgia, serif" font-size="11" fill="#9e3b2e" text-anchor="start" font-weight="bold">Fragrance Log</text>
  <rect x="420" y="122" width="324" height="46" rx="6" fill="#f6f2ee" stroke="#c9bfb2" stroke-width="1"/>
  <rect x="420" y="122" width="4" height="46" fill="#d35b2d"/>
  <text x="430" y="140" font-family="Georgia, serif" font-size="10" fill="#3a3530" text-anchor="start" font-weight="bold">Chanel Chance Eau Tendre</text>
  <text x="430" y="155" font-family="Georgia, serif" font-size="8" fill="#c9922d" text-anchor="start">Floral Fresh · EDT · ⭐⭐⭐⭐⭐</text>
  <rect x="420" y="176" width="324" height="46" rx="6" fill="#fff" stroke="#c9bfb2" stroke-width="1"/>
  <rect x="420" y="176" width="4" height="46" fill="#c9922d"/>
  <text x="430" y="194" font-family="Georgia, serif" font-size="10" fill="#3a3530" text-anchor="start" font-weight="bold">Jo Malone Peony &amp; Blush Suede</text>
  <text x="430" y="209" font-family="Georgia, serif" font-size="8" fill="#c9922d" text-anchor="start">Floral Woody · Cologne · ⭐⭐⭐⭐</text>
  <rect x="420" y="230" width="324" height="46" rx="6" fill="#fff" stroke="#c9bfb2" stroke-width="1"/>
  <rect x="420" y="230" width="4" height="46" fill="#6b7c3f"/>
  <text x="430" y="248" font-family="Georgia, serif" font-size="10" fill="#3a3530" text-anchor="start" font-weight="bold">Diptyque Philosykos</text>
  <text x="430" y="263" font-family="Georgia, serif" font-size="8" fill="#c9922d" text-anchor="start">Green Woody · EDT · ⭐⭐⭐⭐</text>
  <rect x="420" y="284" width="324" height="46" rx="6" fill="#f6f2ee" stroke="#c9bfb2" stroke-width="1" stroke-dasharray="4,3"/>
  <text x="582" y="312" font-family="Georgia, serif" font-size="9" fill="#d35b2d" text-anchor="middle" font-style="italic">+ Log a new scent</text>
  <rect x="400" y="344" width="364" height="140" rx="10" fill="#f6f2ee" stroke="#c9bfb2" stroke-width="1"/>
  <text x="420" y="368" font-family="Georgia, serif" font-size="10" fill="#9e3b2e" text-anchor="start" font-weight="bold">My collection:</text>
  <text x="420" y="386" font-family="Georgia, serif" font-size="9" fill="#3a3530" text-anchor="start">Owned: 12 · Decanted: 4 · Wish list: 8</text>
  <text x="420" y="402" font-family="Georgia, serif" font-size="9" fill="#c9bfb2" text-anchor="start">Families: Floral (6) · Fresh (3) · Woody (2)</text>
  <text x="420" y="420" font-family="Georgia, serif" font-size="9" fill="#3a3530" text-anchor="start">Favourite season: Spring / Autumn</text>
  <text x="420" y="438" font-family="Georgia, serif" font-size="9" fill="#3a3530" text-anchor="start">Top brand: Jo Malone, Chanel, Diptyque</text>
  <text x="420" y="456" font-family="Georgia, serif" font-size="8" fill="#d35b2d" text-anchor="start" font-style="italic">✨  Ask: "suggest a winter scent like Philosykos"</text>
  <text x="760" y="520" font-family="Georgia, serif" font-size="8" fill="#c9bfb2" text-anchor="end">via Scentinal Journal · Glee-fully Toolbox</text>
</svg>