<svg xmlns="http://www.w3.org/2000/svg" viewBox="0 0 800 534" width="800" height="534" role="img" aria-label="A retro-bright smart shopping bag showing categorised list with prices and a comparison panel">
  <defs>
    <filter id="bn" x="-5%" y="-5%" width="110%" height="115%">
      <feDropShadow dx="0" dy="2" stdDeviation="3" flood-color="#9e3b2e" flood-opacity="0.12"/>
    </filter>
  </defs>
  <rect width="800" height="534" fill="#f6f2ee"/>
  <rect x="0" y="0" width="800" height="6" fill="#d35b2d"/>
  <rect x="24" y="22" width="752" height="490" rx="14" fill="#e8e3dc" stroke="#c9bfb2" stroke-width="1.5" filter="url(#bn)"/>
  <rect x="24" y="22" width="752" height="52" rx="14" fill="#d35b2d"/>
  <rect x="24" y="52" width="752" height="22" fill="#d35b2d"/>
  <text x="48" y="54" font-family="Georgia, serif" font-size="18" font-weight="bold" fill="#f6f2ee" letter-spacing="0.5">Bag Nabbit</text>
  <text x="48" y="70" font-family="Georgia, serif" font-size="11" fill="#f6f2ee" opacity="0.8" font-style="italic">Find it. Compare it. Nab the best deal — every time.</text>
  <circle cx="720" cy="38" r="7" fill="#f6f2ee" opacity="0.3"/>
  <circle cx="738" cy="38" r="7" fill="#f6f2ee" opacity="0.5"/>
  <circle cx="756" cy="38" r="7" fill="#f6f2ee" opacity="0.7"/>
  <rect x="48" y="96" width="80" height="90" rx="8" fill="#d35b2d"/>
  <path d="M64,104 Q64,90 88,90 Q112,90 112,104" fill="none" stroke="#f6f2ee" stroke-width="2.5" stroke-linecap="round"/>
  <text x="88" y="148" font-family="Georgia, serif" font-size="28" fill="#3a3530" text-anchor="middle">🛍️</text>
  <text x="88" y="178" font-family="Georgia, serif" font-size="8" fill="#f6f2ee" text-anchor="middle" font-weight="bold">15 items</text>
  <text x="88" y="190" font-family="Georgia, serif" font-size="8" fill="#f6f2ee" text-anchor="middle">£234 est.</text>
  <rect x="148" y="88" width="420" height="400" rx="10" fill="#fff" stroke="#c9bfb2" stroke-width="1"/>
  <rect x="148" y="88" width="420" height="28" rx="10" fill="#d35b2d"/>
  <text x="168" y="107" font-family="Georgia, serif" font-size="11" fill="#f6f2ee" text-anchor="start" font-weight="bold">Today's shopping run · 15 items</text>
  <text x="168" y="130" font-family="Georgia, serif" font-size="8" fill="#6b7c3f" text-anchor="start" font-weight="bold">GROCERIES</text>
  <rect x="168" y="138" width="380" height="28" rx="4" fill="#fff" stroke="#c9bfb2" stroke-width="1"/>
  <text x="174" y="154" font-family="Georgia, serif" font-size="9" fill="#3a3530" text-anchor="start">✓  Oat milk (Oatly, 1L × 2)</text>
  <text x="492" y="154" font-family="Georgia, serif" font-size="9" fill="#3a3530" text-anchor="end">£3.50</text>
  <rect x="168" y="170" width="380" height="28" rx="4" fill="#fff" stroke="#c9bfb2" stroke-width="1"/>
  <text x="174" y="186" font-family="Georgia, serif" font-size="9" fill="#3a3530" text-anchor="start">☐  Sourdough bread (Gail's or equiv.)</text>
  <text x="492" y="186" font-family="Georgia, serif" font-size="9" fill="#3a3530" text-anchor="end">£4.20</text>
  <rect x="168" y="202" width="380" height="28" rx="4" fill="#fff" stroke="#c9bfb2" stroke-width="1"/>
  <text x="174" y="218" font-family="Georgia, serif" font-size="9" fill="#3a3530" text-anchor="start">☐  Eggs — free range, 12 pack</text>
  <text x="492" y="218" font-family="Georgia, serif" font-size="9" fill="#3a3530" text-anchor="end">£3.85</text>
  <text x="168" y="248" font-family="Georgia, serif" font-size="8" fill="#c9922d" text-anchor="start" font-weight="bold">BEAUTY</text>
  <rect x="168" y="256" width="380" height="28" rx="4" fill="#fff" stroke="#c9bfb2" stroke-width="1"/>
  <text x="174" y="272" font-family="Georgia, serif" font-size="9" fill="#3a3530" text-anchor="start">☐  SPF50 moisturiser (Altruist or CeraVe)</text>
  <text x="492" y="272" font-family="Georgia, serif" font-size="9" fill="#3a3530" text-anchor="end">£7–12</text>
  <rect x="168" y="288" width="380" height="28" rx="4" fill="#fff" stroke="#c9bfb2" stroke-width="1"/>
  <text x="174" y="304" font-family="Georgia, serif" font-size="9" fill="#3a3530" text-anchor="start">☐  Micellar water — Bioderma 250ml</text>
  <text x="492" y="304" font-family="Georgia, serif" font-size="9" fill="#3a3530" text-anchor="end">£8.50</text>
  <text x="168" y="334" font-family="Georgia, serif" font-size="8" fill="#2d7c7c" text-anchor="start" font-weight="bold">HOME</text>
  <rect x="168" y="342" width="380" height="28" rx="4" fill="#fff" stroke="#c9bfb2" stroke-width="1"/>
  <text x="174" y="358" font-family="Georgia, serif" font-size="9" fill="#3a3530" text-anchor="start">☐  Beeswax candle — medium, unscented</text>
  <text x="492" y="358" font-family="Georgia, serif" font-size="9" fill="#3a3530" text-anchor="end">£14</text>
  <rect x="168" y="374" width="380" height="28" rx="4" fill="#fff" stroke="#c9bfb2" stroke-width="1"/>
  <text x="174" y="390" font-family="Georgia, serif" font-size="9" fill="#3a3530" text-anchor="start">☐  Laundry detergent (Smol pods × 30)</text>
  <text x="492" y="390" font-family="Georgia, serif" font-size="9" fill="#3a3530" text-anchor="end">£11</text>
  <rect x="168" y="416" width="380" height="60" rx="7" fill="#f6f2ee" stroke="#c9bfb2" stroke-width="1"/>
  <text x="188" y="436" font-family="Georgia, serif" font-size="9" fill="#9e3b2e" text-anchor="start" font-weight="bold">Subtotal (listed items):</text>
  <text x="492" y="436" font-family="Georgia, serif" font-size="10" fill="#9e3b2e" text-anchor="end" font-weight="bold">£52.05</text>
  <text x="188" y="452" font-family="Georgia, serif" font-size="8" fill="#6b7c3f" text-anchor="start">Best stores: Waitrose + Boots + Dunelm</text>
  <rect x="588" y="88" width="176" height="400" rx="10" fill="#f6f2ee" stroke="#c9bfb2" stroke-width="1"/>
  <text x="676" y="112" font-family="Georgia, serif" font-size="11" fill="#9e3b2e" text-anchor="middle" font-weight="bold">Price check</text>
  <text x="676" y="132" font-family="Georgia, serif" font-size="9" fill="#3a3530" text-anchor="middle" font-weight="bold">Oat milk 1L</text>
  <text x="608" y="152" font-family="Georgia, serif" font-size="8" fill="#c9bfb2" text-anchor="start">Waitrose</text>
  <rect x="608" y="160" width="148" height="8" rx="3" fill="#e8e3dc"/>
  <rect x="608" y="160" width="88" height="8" rx="3" fill="#6b7c3f"/>
  <text x="724" y="160" font-family="Georgia, serif" font-size="8" fill="#6b7c3f" text-anchor="end">£1.75</text>
  <text x="608" y="182" font-family="Georgia, serif" font-size="8" fill="#c9bfb2" text-anchor="start">Sainsbury's</text>
  <rect x="608" y="190" width="148" height="8" rx="3" fill="#e8e3dc"/>
  <rect x="608" y="190" width="100" height="8" rx="3" fill="#c9922d"/>
  <text x="724" y="190" font-family="Georgia, serif" font-size="8" fill="#c9922d" text-anchor="end">£2.00</text>
  <text x="608" y="212" font-family="Georgia, serif" font-size="8" fill="#c9bfb2" text-anchor="start">Amazon Fresh</text>
  <rect x="608" y="220" width="148" height="8" rx="3" fill="#e8e3dc"/>
  <rect x="608" y="220" width="113" height="8" rx="3" fill="#d35b2d"/>
  <text x="724" y="220" font-family="Georgia, serif" font-size="8" fill="#d35b2d" text-anchor="end">£2.25</text>
  <text x="608" y="242" font-family="Georgia, serif" font-size="8" fill="#c9bfb2" text-anchor="start">Ocado</text>
  <rect x="608" y="250" width="148" height="8" rx="3" fill="#e8e3dc"/>
  <rect x="608" y="250" width="104" height="8" rx="3" fill="#c9bfb2"/>
  <text x="724" y="250" font-family="Georgia, serif" font-size="8" fill="#c9bfb2" text-anchor="end">£2.10</text>
  <text x="676" y="282" font-family="Georgia, serif" font-size="9" fill="#6b7c3f" text-anchor="middle" font-weight="bold">Best: Waitrose ✓</text>
  <text x="676" y="298" font-family="Georgia, serif" font-size="8" fill="#6b7c3f" text-anchor="middle">Saving £0.50/unit</text>
  <rect x="608" y="316" width="148" height="2" fill="#c9bfb2"/>
  <text x="676" y="338" font-family="Georgia, serif" font-size="9" fill="#9e3b2e" text-anchor="middle" font-weight="bold">Smart swaps:</text>
  <text x="676" y="354" font-family="Georgia, serif" font-size="8" fill="#3a3530" text-anchor="middle">Altruist SPF50</text>
  <text x="676" y="368" font-family="Georgia, serif" font-size="8" fill="#3a3530" text-anchor="middle">saves £8 vs</text>
  <text x="676" y="382" font-family="Georgia, serif" font-size="8" fill="#3a3530" text-anchor="middle">La Roche-Posay</text>
  <text x="676" y="396" font-family="Georgia, serif" font-size="8" fill="#6b7c3f" text-anchor="middle">same protection</text>
  <text x="676" y="418" font-family="Georgia, serif" font-size="8" fill="#9e3b2e" text-anchor="middle" font-weight="bold">Est. saved:</text>
  <text x="676" y="434" font-family="Georgia, serif" font-size="9" fill="#6b7c3f" text-anchor="middle" font-weight="bold">£18.50 today</text>
  <text x="676" y="462" font-family="Georgia, serif" font-size="8" fill="#d35b2d" text-anchor="middle" font-weight="bold">🛍️  Bag it!</text>
  <text x="760" y="520" font-family="Georgia, serif" font-size="8" fill="#c9bfb2" text-anchor="end">via Bag Nabbit · Glee-fully Toolbox</text>
</svg>