<svg xmlns="http://www.w3.org/2000/svg" viewBox="0 0 800 534" width="800" height="534" role="img" aria-label="A retro-bright food preference profile card showing dietary settings, allergy flags, flavour preferences and cuisine favourites">
  <defs>
    <filter id="pp" x="-5%" y="-5%" width="110%" height="115%">
      <feDropShadow dx="0" dy="2" stdDeviation="3" flood-color="#9e3b2e" flood-opacity="0.12"/>
    </filter>
  </defs>
  <rect width="800" height="534" fill="#f6f2ee"/>
  <rect x="0" y="0" width="800" height="6" fill="#d35b2d"/>
  <rect x="24" y="22" width="752" height="490" rx="14" fill="#e8e3dc" stroke="#c9bfb2" stroke-width="1.5" filter="url(#pp)"/>
  <rect x="24" y="22" width="752" height="52" rx="14" fill="#d35b2d"/>
  <rect x="24" y="52" width="752" height="22" fill="#d35b2d"/>
  <text x="48" y="54" font-family="Georgia, serif" font-size="18" font-weight="bold" fill="#f6f2ee" letter-spacing="0.5">Palatably Profiled</text>
  <text x="48" y="70" font-family="Georgia, serif" font-size="11" fill="#f6f2ee" opacity="0.8" font-style="italic">Your eating identity — so every meal suggestion actually fits.</text>
  <circle cx="720" cy="38" r="7" fill="#f6f2ee" opacity="0.3"/>
  <circle cx="738" cy="38" r="7" fill="#f6f2ee" opacity="0.5"/>
  <circle cx="756" cy="38" r="7" fill="#f6f2ee" opacity="0.7"/>
  <rect x="40" y="88" width="440" height="400" rx="10" fill="#fff" stroke="#c9bfb2" stroke-width="1"/>
  <rect x="40" y="88" width="440" height="28" rx="10" fill="#d35b2d"/>
  <text x="260" y="107" font-family="Georgia, serif" font-size="12" fill="#f6f2ee" text-anchor="middle" font-weight="bold">Food Profile — Alex</text>
  <text x="60" y="134" font-family="Georgia, serif" font-size="9" fill="#9e3b2e" text-anchor="start" font-weight="bold">Eating style:</text>
  <rect x="60" y="140" width="90" height="18" rx="9" fill="#6b7c3f"/>
  <text x="105" y="151" font-family="Georgia, serif" font-size="8" fill="#f6f2ee" text-anchor="middle">Flexitarian</text>
  <rect x="158" y="140" width="82" height="18" rx="9" fill="#2d7c7c"/>
  <text x="199" y="151" font-family="Georgia, serif" font-size="8" fill="#f6f2ee" text-anchor="middle">Pescatarian</text>
  <rect x="248" y="140" width="52" height="18" rx="9" fill="#e8e3dc"/>
  <text x="274" y="151" font-family="Georgia, serif" font-size="8" fill="#9e3b2e" text-anchor="middle">Vegan</text>
  <rect x="308" y="140" width="66" height="18" rx="9" fill="#e8e3dc"/>
  <text x="341" y="151" font-family="Georgia, serif" font-size="8" fill="#9e3b2e" text-anchor="middle">Omnivore</text>
  <text x="60" y="176" font-family="Georgia, serif" font-size="9" fill="#9e3b2e" text-anchor="start" font-weight="bold">Allergies / intolerances:</text>
  <rect x="60" y="182" width="80" height="18" rx="9" fill="#d35b2d"/>
  <text x="100" y="193" font-family="Georgia, serif" font-size="8" fill="#f6f2ee" text-anchor="middle">⚠ Shellfish</text>
  <rect x="148" y="182" width="80" height="18" rx="9" fill="#c9922d"/>
  <text x="188" y="193" font-family="Georgia, serif" font-size="8" fill="#f6f2ee" text-anchor="middle">⚠ Lactose</text>
  <rect x="236" y="182" width="52" height="18" rx="9" fill="#e8e3dc"/>
  <text x="262" y="193" font-family="Georgia, serif" font-size="8" fill="#9e3b2e" text-anchor="middle">Gluten</text>
  <rect x="296" y="182" width="52" height="18" rx="9" fill="#e8e3dc"/>
  <text x="322" y="193" font-family="Georgia, serif" font-size="8" fill="#9e3b2e" text-anchor="middle">Nuts</text>
  <text x="60" y="216" font-family="Georgia, serif" font-size="9" fill="#9e3b2e" text-anchor="start" font-weight="bold">Heat tolerance:</text>
  <rect x="60" y="224" width="260" height="10" rx="3" fill="#e8e3dc"/>
  <rect x="60" y="224" width="195" height="10" rx="3" fill="#d35b2d"/>
  <text x="60" y="248" font-family="Georgia, serif" font-size="8" fill="#d35b2d" text-anchor="start">Medium-hot (loves chilli, dislikes face-melting)</text>
  <text x="60" y="268" font-family="Georgia, serif" font-size="9" fill="#9e3b2e" text-anchor="start" font-weight="bold">Texture preferences:</text>
  <text x="60" y="282" font-family="Georgia, serif" font-size="9" fill="#3a3530" text-anchor="start">✓ Crispy  ✓ Silky sauces  ✓ Al dente  ✗ Slimy  ✗ Mushy</text>
  <text x="60" y="302" font-family="Georgia, serif" font-size="9" fill="#9e3b2e" text-anchor="start" font-weight="bold">Favourite cuisines:</text>
  <rect x="160" y="308" width="250" height="8" rx="3" fill="#e8e3dc"/>
  <rect x="160" y="308" width="250" height="8" rx="3" fill="#d35b2d"/>
  <text x="60" y="320" font-family="Georgia, serif" font-size="8" fill="#d35b2d" text-anchor="start">Japanese</text>
  <rect x="160" y="324" width="250" height="8" rx="3" fill="#e8e3dc"/>
  <rect x="160" y="324" width="212" height="8" rx="3" fill="#c9922d"/>
  <text x="60" y="336" font-family="Georgia, serif" font-size="8" fill="#c9922d" text-anchor="start">Mexican</text>
  <rect x="160" y="340" width="250" height="8" rx="3" fill="#e8e3dc"/>
  <rect x="160" y="340" width="187" height="8" rx="3" fill="#6b7c3f"/>
  <text x="60" y="352" font-family="Georgia, serif" font-size="8" fill="#6b7c3f" text-anchor="start">Lebanese</text>
  <rect x="160" y="356" width="250" height="8" rx="3" fill="#e8e3dc"/>
  <rect x="160" y="356" width="150" height="8" rx="3" fill="#2d7c7c"/>
  <text x="60" y="368" font-family="Georgia, serif" font-size="8" fill="#2d7c7c" text-anchor="start">Italian</text>
  <text x="60" y="388" font-family="Georgia, serif" font-size="9" fill="#9e3b2e" text-anchor="start" font-weight="bold">Disliked flavours / foods:</text>
  <text x="60" y="402" font-family="Georgia, serif" font-size="9" fill="#c9bfb2" text-anchor="start">Raw onion · Blue cheese · Very fatty cuts · Overcooked veg</text>
  <text x="60" y="422" font-family="Georgia, serif" font-size="9" fill="#9e3b2e" text-anchor="start" font-weight="bold">Meal frequency:</text>
  <text x="60" y="436" font-family="Georgia, serif" font-size="9" fill="#3a3530" text-anchor="start">Cooks 4×/week · Meal preps Sunday · Eats out 2×/week</text>
  <text x="60" y="456" font-family="Georgia, serif" font-size="9" fill="#9e3b2e" text-anchor="start" font-weight="bold">Budget:</text>
  <text x="60" y="470" font-family="Georgia, serif" font-size="9" fill="#3a3530" text-anchor="start">Home: ~£15/day · Eating out: £20–40/meal · Splurge: £80+</text>
  <rect x="500" y="88" width="264" height="400" rx="10" fill="#f6f2ee" stroke="#c9bfb2" stroke-width="1"/>
  <text x="520" y="112" font-family="Georgia, serif" font-size="11" fill="#9e3b2e" text-anchor="start" font-weight="bold">Profile powers:</text>
  <text x="520" y="134" font-family="Georgia, serif" font-size="9" fill="#3a3530" text-anchor="start">✓  Menu Conductor uses your</text>
  <text x="520" y="148" font-family="Georgia, serif" font-size="9" fill="#3a3530" text-anchor="start">   profile to build menus that</text>
  <text x="520" y="162" font-family="Georgia, serif" font-size="9" fill="#c9bfb2" text-anchor="start">   actually fit your life.</text>
  <text x="520" y="182" font-family="Georgia, serif" font-size="9" fill="#3a3530" text-anchor="start">✓  Flavor Meister tracks how</text>
  <text x="520" y="196" font-family="Georgia, serif" font-size="9" fill="#c9bfb2" text-anchor="start">   your palate evolves over time.</text>
  <text x="520" y="216" font-family="Georgia, serif" font-size="9" fill="#3a3530" text-anchor="start">✓  Wishful Tastes filters recs</text>
  <text x="520" y="230" font-family="Georgia, serif" font-size="9" fill="#c9bfb2" text-anchor="start">   for your allergies + style.</text>
  <text x="520" y="250" font-family="Georgia, serif" font-size="9" fill="#3a3530" text-anchor="start">✓  Pantry Shopper knows what</text>
  <text x="520" y="264" font-family="Georgia, serif" font-size="9" fill="#c9bfb2" text-anchor="start">   you'll actually use.</text>
  <rect x="520" y="284" width="224" height="2" fill="#c9bfb2"/>
  <text x="520" y="304" font-family="Georgia, serif" font-size="10" fill="#9e3b2e" text-anchor="start" font-weight="bold">Quick asks:</text>
  <text x="520" y="322" font-family="Georgia, serif" font-size="8" fill="#d35b2d" text-anchor="start" font-style="italic">"What can I eat at this</text>
  <text x="520" y="336" font-family="Georgia, serif" font-size="8" fill="#d35b2d" text-anchor="start" font-style="italic">Thai restaurant?"</text>
  <text x="520" y="356" font-family="Georgia, serif" font-size="8" fill="#d35b2d" text-anchor="start" font-style="italic">"Suggest a pescatarian</text>
  <text x="520" y="370" font-family="Georgia, serif" font-size="8" fill="#d35b2d" text-anchor="start" font-style="italic">meal-prep for Sunday."</text>
  <text x="520" y="390" font-family="Georgia, serif" font-size="8" fill="#d35b2d" text-anchor="start" font-style="italic">"Am I eating enough</text>
  <text x="520" y="404" font-family="Georgia, serif" font-size="8" fill="#d35b2d" text-anchor="start" font-style="italic">variety this month?"</text>
  <rect x="520" y="424" width="224" height="2" fill="#c9bfb2"/>
  <text x="520" y="444" font-family="Georgia, serif" font-size="8" fill="#9e3b2e" text-anchor="start">Profile last updated:</text>
  <text x="520" y="458" font-family="Georgia, serif" font-size="8" fill="#c9bfb2" text-anchor="start">May 27, 2026</text>
  <text x="520" y="474" font-family="Georgia, serif" font-size="8" fill="#c9bfb2" text-anchor="start">Dishes logged: 87</text>
  <text x="760" y="520" font-family="Georgia, serif" font-size="8" fill="#c9bfb2" text-anchor="end">via Palatably Profiled · Glee-fully Toolbox</text>
</svg>