<svg xmlns="http://www.w3.org/2000/svg" viewBox="0 0 800 534" width="800" height="534" role="img" aria-label="A retro-bright day-by-day trip itinerary showing time-blocked schedule cards with budget tracker and packing checklist">
  <defs>
    <filter id="ih" x="-5%" y="-5%" width="110%" height="115%">
      <feDropShadow dx="0" dy="2" stdDeviation="3" flood-color="#9e3b2e" flood-opacity="0.12"/>
    </filter>
  </defs>
  <rect width="800" height="534" fill="#f6f2ee"/>
  <rect x="0" y="0" width="800" height="6" fill="#d35b2d"/>
  <rect x="24" y="22" width="752" height="490" rx="14" fill="#e8e3dc" stroke="#c9bfb2" stroke-width="1.5" filter="url(#ih)"/>
  <rect x="24" y="22" width="752" height="52" rx="14" fill="#d35b2d"/>
  <rect x="24" y="52" width="752" height="22" fill="#d35b2d"/>
  <text x="48" y="54" font-family="Georgia, serif" font-size="18" font-weight="bold" fill="#f6f2ee" letter-spacing="0.5">Itinerary Hacker</text>
  <text x="48" y="70" font-family="Georgia, serif" font-size="11" fill="#f6f2ee" opacity="0.8" font-style="italic">Travel plans that actually survive contact with reality.</text>
  <circle cx="720" cy="38" r="7" fill="#f6f2ee" opacity="0.3"/>
  <circle cx="738" cy="38" r="7" fill="#f6f2ee" opacity="0.5"/>
  <circle cx="756" cy="38" r="7" fill="#f6f2ee" opacity="0.7"/>
  <rect x="48" y="96" width="48" height="22" rx="11" fill="#d35b2d"/>
  <text x="72" y="110" font-family="Georgia, serif" font-size="9" fill="#f6f2ee" text-anchor="middle">Day 1</text>
  <rect x="104" y="96" width="48" height="22" rx="11" fill="#e8e3dc"/>
  <text x="128" y="110" font-family="Georgia, serif" font-size="9" fill="#9e3b2e" text-anchor="middle">Day 2</text>
  <rect x="160" y="96" width="48" height="22" rx="11" fill="#e8e3dc"/>
  <text x="184" y="110" font-family="Georgia, serif" font-size="9" fill="#9e3b2e" text-anchor="middle">Day 3</text>
  <rect x="216" y="96" width="48" height="22" rx="11" fill="#e8e3dc"/>
  <text x="240" y="110" font-family="Georgia, serif" font-size="9" fill="#9e3b2e" text-anchor="middle">Day 4</text>
  <text x="340" y="108" font-family="Georgia, serif" font-size="9" fill="#c9bfb2" text-anchor="start">Kyoto — Day 1 of 12</text>
  <rect x="40" y="126" width="460" height="360" rx="10" fill="#fff" stroke="#c9bfb2" stroke-width="1"/>
  <rect x="90" y="138" width="2" height="336" fill="#c9bfb2"/>
  <circle cx="91" cy="160" r="6" fill="#d35b2d"/>
  <text x="60" y="164" font-family="Georgia, serif" font-size="8" fill="#c9bfb2" text-anchor="end">09:00</text>
  <rect x="104" y="140" width="356" height="40" rx="6" fill="#d35b2d" stroke="#c9bfb2" stroke-width="1"/>
  <text x="120" y="155" font-family="Georgia, serif" font-size="9" fill="#f6f2ee" text-anchor="start" font-weight="bold">☀️  Arrive Kyoto Station · Shinkansen from Tokyo</text>
  <text x="120" y="169" font-family="Georgia, serif" font-size="8" fill="#f6f2ee" text-anchor="start" opacity="0.85">Baggage storage at station · collect JR Pass</text>
  <circle cx="91" cy="217" r="6" fill="#c9922d"/>
  <text x="60" y="221" font-family="Georgia, serif" font-size="8" fill="#c9bfb2" text-anchor="end">10:30</text>
  <rect x="104" y="192" width="356" height="50" rx="6" fill="#c9922d" stroke="#c9bfb2" stroke-width="1"/>
  <text x="120" y="207" font-family="Georgia, serif" font-size="9" fill="#f6f2ee" text-anchor="start" font-weight="bold">🚌  Bus 100 → Fushimi Inari-taisha</text>
  <text x="120" y="221" font-family="Georgia, serif" font-size="8" fill="#f6f2ee" text-anchor="start" opacity="0.85">Hike the torii gates — leave by 11am to beat crowds</text>
  <circle cx="91" cy="276" r="6" fill="#fff"/>
  <text x="60" y="280" font-family="Georgia, serif" font-size="8" fill="#c9bfb2" text-anchor="end">14:00</text>
  <rect x="104" y="256" width="356" height="40" rx="6" fill="#fff" stroke="#c9bfb2" stroke-width="1"/>
  <text x="120" y="271" font-family="Georgia, serif" font-size="9" fill="#3a3530" text-anchor="start" font-weight="bold">🍜  Lunch: Ippudo near Nishiki · ~¥1,200</text>
  <text x="120" y="285" font-family="Georgia, serif" font-size="8" fill="#c9bfb2" text-anchor="start">Ask for firm noodles · the egg is essential</text>
  <circle cx="91" cy="328" r="6" fill="#fff"/>
  <text x="60" y="332" font-family="Georgia, serif" font-size="8" fill="#c9bfb2" text-anchor="end">15:30</text>
  <rect x="104" y="308" width="356" height="40" rx="6" fill="#fff" stroke="#c9bfb2" stroke-width="1"/>
  <text x="120" y="323" font-family="Georgia, serif" font-size="9" fill="#3a3530" text-anchor="start" font-weight="bold">🎎  Gion and Higashiyama walk · 1.5h stroll</text>
  <text x="120" y="337" font-family="Georgia, serif" font-size="8" fill="#c9bfb2" text-anchor="start">Hanamikoji-dori at dusk · possible geiko spotting</text>
  <circle cx="91" cy="387" r="6" fill="#9e3b2e"/>
  <text x="60" y="391" font-family="Georgia, serif" font-size="8" fill="#c9bfb2" text-anchor="end">19:00</text>
  <rect x="104" y="362" width="356" height="50" rx="6" fill="#9e3b2e" stroke="#c9bfb2" stroke-width="1"/>
  <text x="120" y="377" font-family="Georgia, serif" font-size="9" fill="#f6f2ee" text-anchor="start" font-weight="bold">🍱  Dinner: Kappo counter · Reserve at hotel</text>
  <text x="120" y="391" font-family="Georgia, serif" font-size="8" fill="#f6f2ee" text-anchor="start" opacity="0.85">Omakase counter · 8 courses · ¥8,000 pp</text>
  <circle cx="91" cy="439" r="6" fill="#c9bfb2"/>
  <text x="60" y="443" font-family="Georgia, serif" font-size="8" fill="#c9bfb2" text-anchor="end">21:30</text>
  <rect x="104" y="424" width="356" height="30" rx="6" fill="#c9bfb2" stroke="#c9bfb2" stroke-width="1"/>
  <text x="120" y="439" font-family="Georgia, serif" font-size="9" fill="#f6f2ee" text-anchor="start" font-weight="bold">🏨  Check in: Hotel Granvia · 5 min walk</text>
  <text x="120" y="453" font-family="Georgia, serif" font-size="8" fill="#f6f2ee" text-anchor="start" opacity="0.85"></text>
  <rect x="520" y="126" width="244" height="200" rx="10" fill="#f6f2ee" stroke="#c9bfb2" stroke-width="1"/>
  <text x="540" y="150" font-family="Georgia, serif" font-size="11" fill="#9e3b2e" text-anchor="start" font-weight="bold">Day 1 budget</text>
  <text x="540" y="170" font-family="Georgia, serif" font-size="9" fill="#3a3530" text-anchor="start">Transport:  ¥2,400 (£12)</text>
  <text x="540" y="186" font-family="Georgia, serif" font-size="9" fill="#3a3530" text-anchor="start">Food:       ¥9,200 (£46)</text>
  <text x="540" y="202" font-family="Georgia, serif" font-size="9" fill="#6b7c3f" text-anchor="start">Activities:  ¥0   free</text>
  <text x="540" y="218" font-family="Georgia, serif" font-size="9" fill="#3a3530" text-anchor="start">Hotel:      ¥18,000 (£90)</text>
  <rect x="540" y="232" width="204" height="2" fill="#c9bfb2"/>
  <text x="540" y="250" font-family="Georgia, serif" font-size="9" fill="#9e3b2e" text-anchor="start" font-weight="bold">Day total: ¥29,600 (£148)</text>
  <text x="540" y="266" font-family="Georgia, serif" font-size="8" fill="#c9bfb2" text-anchor="start">Budget: £2,400 · Used: £148</text>
  <rect x="540" y="276" width="204" height="8" rx="3" fill="#e8e3dc"/>
  <rect x="540" y="276" width="30" height="8" rx="3" fill="#d35b2d"/>
  <text x="540" y="296" font-family="Georgia, serif" font-size="8" fill="#d35b2d" text-anchor="start">6% spent · 14 days remaining</text>
  <text x="540" y="310" font-family="Georgia, serif" font-size="8" fill="#6b7c3f" text-anchor="start" font-weight="bold">On track ✓</text>
  <rect x="520" y="342" width="244" height="144" rx="10" fill="#fff" stroke="#c9bfb2" stroke-width="1"/>
  <text x="540" y="366" font-family="Georgia, serif" font-size="10" fill="#9e3b2e" text-anchor="start" font-weight="bold">Today's pack check:</text>
  <text x="540" y="384" font-family="Georgia, serif" font-size="8" fill="#6b7c3f" text-anchor="start">✓  JR Pass · IC Card top-up</text>
  <text x="540" y="398" font-family="Georgia, serif" font-size="8" fill="#6b7c3f" text-anchor="start">✓  Comfortable shoes</text>
  <text x="540" y="412" font-family="Georgia, serif" font-size="8" fill="#6b7c3f" text-anchor="start">✓  Small cash ¥5,000</text>
  <text x="540" y="426" font-family="Georgia, serif" font-size="8" fill="#c9922d" text-anchor="start">☐  Portable charger</text>
  <text x="540" y="440" font-family="Georgia, serif" font-size="8" fill="#c9922d" text-anchor="start">☐  Pocket wifi check</text>
  <text x="540" y="460" font-family="Georgia, serif" font-size="7" fill="#c9bfb2" text-anchor="start">Backup: Kyoto Ramen Koji L10</text>
  <text x="760" y="520" font-family="Georgia, serif" font-size="8" fill="#c9bfb2" text-anchor="end">via Itinerary Hacker · Glee-fully Toolbox</text>
</svg>