<svg xmlns="http://www.w3.org/2000/svg" viewBox="0 0 800 534" width="800" height="534" role="img" aria-label="A retro-bright task management board showing priority-coded task cards in Today, This Week and Someday columns with focus timer">
  <defs>
    <filter id="tm" x="-5%" y="-5%" width="110%" height="115%">
      <feDropShadow dx="0" dy="2" stdDeviation="3" flood-color="#9e3b2e" flood-opacity="0.12"/>
    </filter>
  </defs>
  <rect width="800" height="534" fill="#f6f2ee"/>
  <rect x="0" y="0" width="800" height="6" fill="#d35b2d"/>
  <rect x="24" y="22" width="752" height="490" rx="14" fill="#e8e3dc" stroke="#c9bfb2" stroke-width="1.5" filter="url(#tm)"/>
  <rect x="24" y="22" width="752" height="52" rx="14" fill="#d35b2d"/>
  <rect x="24" y="52" width="752" height="22" fill="#d35b2d"/>
  <text x="48" y="54" font-family="Georgia, serif" font-size="18" font-weight="bold" fill="#f6f2ee" letter-spacing="0.5">Task Maestro</text>
  <text x="48" y="70" font-family="Georgia, serif" font-size="11" fill="#f6f2ee" opacity="0.8" font-style="italic">Conduct your to-do list like it owes you a standing ovation.</text>
  <circle cx="720" cy="38" r="7" fill="#f6f2ee" opacity="0.3"/>
  <circle cx="738" cy="38" r="7" fill="#f6f2ee" opacity="0.5"/>
  <circle cx="756" cy="38" r="7" fill="#f6f2ee" opacity="0.7"/>
  <rect x="40" y="88" width="212" height="390" rx="10" fill="#fff" stroke="#c9bfb2" stroke-width="1"/>
  <rect x="40" y="88" width="212" height="28" rx="10" fill="#d35b2d"/>
  <rect x="40" y="104" width="212" height="12" fill="#d35b2d"/>
  <text x="146" y="107" font-family="Georgia, serif" font-size="10" fill="#f6f2ee" text-anchor="middle" font-weight="bold">TODAY  •  5</text>
  <rect x="56" y="126" width="180" height="56" rx="6" fill="#d35b2d"/>
  <text x="72" y="145" font-family="Georgia, serif" font-size="9" fill="#f6f2ee" text-anchor="start" font-weight="bold">🔴  Submit Q2 report</text>
  <text x="72" y="159" font-family="Georgia, serif" font-size="8" fill="#f6f2ee" text-anchor="start">Finance · Due 10:00 ⚠</text>
  <text x="72" y="171" font-family="Georgia, serif" font-size="7" fill="#f6f2ee" text-anchor="start">ETA: 45 min</text>
  <rect x="56" y="190" width="180" height="48" rx="6" fill="#fff" stroke="#c9bfb2" stroke-width="1"/>
  <text x="72" y="206" font-family="Georgia, serif" font-size="9" fill="#3a3530" text-anchor="start" font-weight="bold">🟠  Team standup prep</text>
  <text x="72" y="220" font-family="Georgia, serif" font-size="8" fill="#c9bfb2" text-anchor="start">People · 09:45</text>
  <rect x="56" y="246" width="180" height="48" rx="6" fill="#fff" stroke="#c9bfb2" stroke-width="1"/>
  <text x="72" y="262" font-family="Georgia, serif" font-size="9" fill="#3a3530" text-anchor="start" font-weight="bold">🟡  Reply: Sarah re: launch</text>
  <text x="72" y="276" font-family="Georgia, serif" font-size="8" fill="#c9bfb2" text-anchor="start">Comms · ETA: 10 min</text>
  <rect x="56" y="302" width="180" height="48" rx="6" fill="#f6f2ee" stroke="#c9bfb2" stroke-width="1"/>
  <text x="72" y="318" font-family="Georgia, serif" font-size="9" fill="#6b7c3f" text-anchor="start" font-weight="bold">✅  Morning review</text>
  <text x="72" y="332" font-family="Georgia, serif" font-size="8" fill="#6b7c3f" text-anchor="start">Done at 08:30  ✓</text>
  <rect x="56" y="358" width="180" height="48" rx="6" fill="#f6f2ee" stroke="#c9bfb2" stroke-width="1"/>
  <text x="72" y="374" font-family="Georgia, serif" font-size="9" fill="#6b7c3f" text-anchor="start" font-weight="bold">✅  Update roadmap slides</text>
  <text x="72" y="388" font-family="Georgia, serif" font-size="8" fill="#6b7c3f" text-anchor="start">Done at 08:55  ✓</text>
  <text x="146" y="452" font-family="Georgia, serif" font-size="8" fill="#d35b2d" text-anchor="middle" font-weight="bold">2 / 5 done · 40%</text>
  <rect x="56" y="458" width="180" height="6" rx="3" fill="#e8e3dc"/>
  <rect x="56" y="458" width="72" height="6" rx="3" fill="#d35b2d"/>
  <rect x="264" y="88" width="212" height="390" rx="10" fill="#fff" stroke="#c9bfb2" stroke-width="1"/>
  <rect x="264" y="88" width="212" height="28" rx="10" fill="#c9922d"/>
  <rect x="264" y="104" width="212" height="12" fill="#c9922d"/>
  <text x="370" y="107" font-family="Georgia, serif" font-size="10" fill="#f6f2ee" text-anchor="middle" font-weight="bold">THIS WEEK  •  7</text>
  <rect x="280" y="126" width="180" height="48" rx="6" fill="#fff" stroke="#c9bfb2" stroke-width="1"/>
  <text x="296" y="142" font-family="Georgia, serif" font-size="9" fill="#3a3530" text-anchor="start" font-weight="bold">🔷  Competitor analysis</text>
  <text x="296" y="156" font-family="Georgia, serif" font-size="8" fill="#c9bfb2" text-anchor="start">Product · Wed</text>
  <rect x="280" y="182" width="180" height="48" rx="6" fill="#fff" stroke="#c9bfb2" stroke-width="1"/>
  <text x="296" y="198" font-family="Georgia, serif" font-size="9" fill="#3a3530" text-anchor="start" font-weight="bold">🔷  Design review — v3</text>
  <text x="296" y="212" font-family="Georgia, serif" font-size="8" fill="#c9bfb2" text-anchor="start">Design · Thu</text>
  <rect x="280" y="238" width="180" height="48" rx="6" fill="#fff" stroke="#c9bfb2" stroke-width="1"/>
  <text x="296" y="254" font-family="Georgia, serif" font-size="9" fill="#3a3530" text-anchor="start" font-weight="bold">🔷  Write Sprint recap</text>
  <text x="296" y="268" font-family="Georgia, serif" font-size="8" fill="#c9bfb2" text-anchor="start">PM · Fri</text>
  <rect x="280" y="294" width="180" height="48" rx="6" fill="#f6f2ee" stroke="#c9bfb2" stroke-width="1"/>
  <text x="296" y="310" font-family="Georgia, serif" font-size="9" fill="#6b7c3f" text-anchor="start" font-weight="bold">✅  1-on-1 with Alex</text>
  <text x="296" y="324" font-family="Georgia, serif" font-size="8" fill="#6b7c3f" text-anchor="start">Mon · Done</text>
  <text x="370" y="420" font-family="Georgia, serif" font-size="8" fill="#c9922d" text-anchor="middle">1 / 7 done · 14%</text>
  <rect x="280" y="428" width="180" height="6" rx="3" fill="#e8e3dc"/>
  <rect x="280" y="428" width="26" height="6" rx="3" fill="#c9922d"/>
  <rect x="488" y="88" width="168" height="260" rx="10" fill="#fff" stroke="#c9bfb2" stroke-width="1"/>
  <rect x="488" y="88" width="168" height="28" rx="10" fill="#2d7c7c"/>
  <rect x="488" y="104" width="168" height="12" fill="#2d7c7c"/>
  <text x="572" y="107" font-family="Georgia, serif" font-size="10" fill="#f6f2ee" text-anchor="middle" font-weight="bold">SOMEDAY  •  4</text>
  <rect x="504" y="126" width="136" height="36" rx="5" fill="#f6f2ee" stroke="#c9bfb2" stroke-width="1"/>
  <text x="520" y="148" font-family="Georgia, serif" font-size="8" fill="#c9bfb2" text-anchor="start">Learn Figma variables</text>
  <rect x="504" y="170" width="136" height="36" rx="5" fill="#f6f2ee" stroke="#c9bfb2" stroke-width="1"/>
  <text x="520" y="192" font-family="Georgia, serif" font-size="8" fill="#c9bfb2" text-anchor="start">Read Shape Up (book)</text>
  <rect x="504" y="214" width="136" height="36" rx="5" fill="#f6f2ee" stroke="#c9bfb2" stroke-width="1"/>
  <text x="520" y="236" font-family="Georgia, serif" font-size="8" fill="#c9bfb2" text-anchor="start">Set up personal wiki</text>
  <rect x="504" y="258" width="136" height="36" rx="5" fill="#f6f2ee" stroke="#c9bfb2" stroke-width="1"/>
  <text x="520" y="280" font-family="Georgia, serif" font-size="8" fill="#c9bfb2" text-anchor="start">Gym 3×/week habit</text>
  <rect x="488" y="360" width="168" height="118" rx="10" fill="#d35b2d"/>
  <text x="572" y="384" font-family="Georgia, serif" font-size="10" fill="#f6f2ee" text-anchor="middle" font-weight="bold">Focus Timer</text>
  <text x="572" y="410" font-family="Georgia, serif" font-size="24" fill="#f6f2ee" text-anchor="middle" font-weight="bold">23:47</text>
  <text x="572" y="432" font-family="Georgia, serif" font-size="8" fill="#f6f2ee" text-anchor="middle">Submit Q2 report</text>
  <text x="572" y="448" font-family="Georgia, serif" font-size="8" fill="#f6f2ee" text-anchor="middle">🔴  Working — do not disturb</text>
  <rect x="672" y="88" width="92" height="390" rx="10" fill="#f6f2ee" stroke="#c9bfb2" stroke-width="1"/>
  <text x="718" y="112" font-family="Georgia, serif" font-size="10" fill="#9e3b2e" text-anchor="middle" font-weight="bold">Stats</text>
  <text x="718" y="134" font-family="Georgia, serif" font-size="8" fill="#c9bfb2" text-anchor="middle">Today</text>
  <text x="718" y="148" font-family="Georgia, serif" font-size="14" fill="#d35b2d" text-anchor="middle" font-weight="bold">40%</text>
  <circle cx="718" cy="188" r="26" fill="#f6f2ee" stroke="#d35b2d" stroke-width="4"/>
  <text x="718" y="218" font-family="Georgia, serif" font-size="8" fill="#c9bfb2" text-anchor="middle">2/5</text>
  <text x="718" y="238" font-family="Georgia, serif" font-size="8" fill="#c9bfb2" text-anchor="middle">Streak</text>
  <text x="718" y="254" font-family="Georgia, serif" font-size="11" fill="#6b7c3f" text-anchor="middle" font-weight="bold">8 days</text>
  <text x="718" y="274" font-family="Georgia, serif" font-size="8" fill="#c9bfb2" text-anchor="middle">Total</text>
  <text x="718" y="290" font-family="Georgia, serif" font-size="11" fill="#9e3b2e" text-anchor="middle" font-weight="bold">247</text>
  <text x="718" y="306" font-family="Georgia, serif" font-size="7" fill="#c9bfb2" text-anchor="middle">tasks done</text>
  <text x="718" y="330" font-family="Georgia, serif" font-size="8" fill="#c9bfb2" text-anchor="middle">Focus</text>
  <text x="718" y="348" font-family="Georgia, serif" font-size="9" fill="#2d7c7c" text-anchor="middle" font-weight="bold">3h 12m</text>
  <text x="718" y="390" font-family="Georgia, serif" font-size="8" fill="#9e3b2e" text-anchor="middle">Best: 11</text>
  <text x="718" y="404" font-family="Georgia, serif" font-size="7" fill="#c9bfb2" text-anchor="middle">tasks Mon</text>
  <text x="718" y="454" font-family="Georgia, serif" font-size="7" fill="#d35b2d" text-anchor="middle" font-style="italic">"What should</text>
  <text x="718" y="468" font-family="Georgia, serif" font-size="7" fill="#d35b2d" text-anchor="middle" font-style="italic">I tackle</text>
  <text x="718" y="482" font-family="Georgia, serif" font-size="7" fill="#d35b2d" text-anchor="middle" font-style="italic">first?"</text>
  <text x="760" y="520" font-family="Georgia, serif" font-size="8" fill="#c9bfb2" text-anchor="end">via Task Maestro · Glee-fully Toolbox</text>
</svg>