<svg xmlns="http://www.w3.org/2000/svg" viewBox="0 0 800 534" width="800" height="534" role="img" aria-label="A retro-bright personal budget dashboard showing monthly spending by category with bar charts, savings goals and transaction feed">
  <defs>
    <filter id="ts" x="-5%" y="-5%" width="110%" height="115%">
      <feDropShadow dx="0" dy="2" stdDeviation="3" flood-color="#9e3b2e" flood-opacity="0.12"/>
    </filter>
  </defs>
  <rect width="800" height="534" fill="#f6f2ee"/>
  <rect x="0" y="0" width="800" height="6" fill="#d35b2d"/>
  <rect x="24" y="22" width="752" height="490" rx="14" fill="#e8e3dc" stroke="#c9bfb2" stroke-width="1.5" filter="url(#ts)"/>
  <rect x="24" y="22" width="752" height="52" rx="14" fill="#d35b2d"/>
  <rect x="24" y="52" width="752" height="22" fill="#d35b2d"/>
  <text x="48" y="54" font-family="Georgia, serif" font-size="18" font-weight="bold" fill="#f6f2ee" letter-spacing="0.5">Thrifty Spender</text>
  <text x="48" y="70" font-family="Georgia, serif" font-size="11" fill="#f6f2ee" opacity="0.8" font-style="italic">Spend with intention. Save without suffering.</text>
  <circle cx="720" cy="38" r="7" fill="#f6f2ee" opacity="0.3"/>
  <circle cx="738" cy="38" r="7" fill="#f6f2ee" opacity="0.5"/>
  <circle cx="756" cy="38" r="7" fill="#f6f2ee" opacity="0.7"/>
  <rect x="40" y="88" width="440" height="120" rx="10" fill="#fff" stroke="#c9bfb2" stroke-width="1"/>
  <text x="60" y="112" font-family="Georgia, serif" font-size="12" fill="#9e3b2e" text-anchor="start" font-weight="bold">May 2026 — Overview</text>
  <text x="60" y="134" font-family="Georgia, serif" font-size="9" fill="#6b7c3f" text-anchor="start" font-weight="bold">Income:</text>
  <text x="160" y="134" font-family="Georgia, serif" font-size="12" fill="#6b7c3f" text-anchor="start" font-weight="bold">£3,400</text>
  <text x="270" y="134" font-family="Georgia, serif" font-size="9" fill="#d35b2d" text-anchor="start" font-weight="bold">Spent:</text>
  <text x="340" y="134" font-family="Georgia, serif" font-size="12" fill="#d35b2d" text-anchor="start" font-weight="bold">£2,134</text>
  <text x="60" y="158" font-family="Georgia, serif" font-size="9" fill="#9e3b2e" text-anchor="start" font-weight="bold">Left:</text>
  <text x="160" y="158" font-family="Georgia, serif" font-size="12" fill="#9e3b2e" text-anchor="start" font-weight="bold">£1,266</text>
  <text x="270" y="158" font-family="Georgia, serif" font-size="9" fill="#2d7c7c" text-anchor="start" font-weight="bold">Saved:</text>
  <text x="340" y="158" font-family="Georgia, serif" font-size="12" fill="#2d7c7c" text-anchor="start" font-weight="bold">£400</text>
  <rect x="60" y="170" width="400" height="8" rx="3" fill="#e8e3dc"/>
  <rect x="60" y="170" width="250" height="8" rx="3" fill="#d35b2d"/>
  <text x="60" y="196" font-family="Georgia, serif" font-size="8" fill="#d35b2d" text-anchor="start">63% of monthly budget used · 10 days left</text>
  <rect x="40" y="220" width="440" height="200" rx="10" fill="#fff" stroke="#c9bfb2" stroke-width="1"/>
  <text x="60" y="244" font-family="Georgia, serif" font-size="11" fill="#9e3b2e" text-anchor="start" font-weight="bold">Spending by category:</text>
  <text x="60" y="264" font-family="Georgia, serif" font-size="9" fill="#3a3530" text-anchor="start">Housing</text>
  <rect x="150" y="256" width="280" height="10" rx="3" fill="#e8e3dc"/>
  <rect x="150" y="256" width="280" height="10" rx="3" fill="#d35b2d"/>
  <text x="438" y="264" font-family="Georgia, serif" font-size="8" fill="#d35b2d" text-anchor="end">£980</text>
  <text x="60" y="284" font-family="Georgia, serif" font-size="9" fill="#3a3530" text-anchor="start">Food &amp; drink</text>
  <rect x="150" y="276" width="280" height="10" rx="3" fill="#e8e3dc"/>
  <rect x="150" y="276" width="196" height="10" rx="3" fill="#c9922d"/>
  <text x="438" y="284" font-family="Georgia, serif" font-size="8" fill="#c9922d" text-anchor="end">£700</text>
  <text x="60" y="304" font-family="Georgia, serif" font-size="9" fill="#3a3530" text-anchor="start">Transport</text>
  <rect x="150" y="296" width="280" height="10" rx="3" fill="#e8e3dc"/>
  <rect x="150" y="296" width="112" height="10" rx="3" fill="#6b7c3f"/>
  <text x="438" y="304" font-family="Georgia, serif" font-size="8" fill="#6b7c3f" text-anchor="end">£196</text>
  <text x="60" y="324" font-family="Georgia, serif" font-size="9" fill="#3a3530" text-anchor="start">Entertainment</text>
  <rect x="150" y="316" width="280" height="10" rx="3" fill="#e8e3dc"/>
  <rect x="150" y="316" width="84" height="10" rx="3" fill="#2d7c7c"/>
  <text x="438" y="324" font-family="Georgia, serif" font-size="8" fill="#2d7c7c" text-anchor="end">£140</text>
  <text x="60" y="344" font-family="Georgia, serif" font-size="9" fill="#3a3530" text-anchor="start">Health</text>
  <rect x="150" y="336" width="280" height="10" rx="3" fill="#e8e3dc"/>
  <rect x="150" y="336" width="56" height="10" rx="3" fill="#9e3b2e"/>
  <text x="438" y="344" font-family="Georgia, serif" font-size="8" fill="#9e3b2e" text-anchor="end">£118</text>
  <text x="60" y="364" font-family="Georgia, serif" font-size="9" fill="#3a3530" text-anchor="start">Clothing</text>
  <rect x="150" y="356" width="280" height="10" rx="3" fill="#e8e3dc"/>
  <rect x="150" y="356" width="0" height="10" rx="3" fill="#c9bfb2"/>
  <text x="438" y="364" font-family="Georgia, serif" font-size="8" fill="#6b7c3f" text-anchor="end">£0  (budget: £80)</text>
  <text x="60" y="392" font-family="Georgia, serif" font-size="8" fill="#c9922d" text-anchor="start">Overspent: Food £120 over ⚠  Try: 2 cook-at-home days</text>
  <text x="60" y="408" font-family="Georgia, serif" font-size="8" fill="#6b7c3f" text-anchor="start">Saved: £80 on clothing this month — carry to savings ✓</text>
  <rect x="40" y="432" width="440" height="56" rx="10" fill="#f6f2ee" stroke="#c9bfb2" stroke-width="1"/>
  <text x="60" y="452" font-family="Georgia, serif" font-size="9" fill="#9e3b2e" text-anchor="start" font-weight="bold">Recent:</text>
  <text x="60" y="468" font-family="Georgia, serif" font-size="8" fill="#3a3530" text-anchor="start">Ottolenghi dinner £64 · Oyster card top-up £20 · Gym £35 · Pret ×3 £18</text>
  <rect x="500" y="88" width="264" height="400" rx="10" fill="#f6f2ee" stroke="#c9bfb2" stroke-width="1"/>
  <text x="520" y="112" font-family="Georgia, serif" font-size="11" fill="#9e3b2e" text-anchor="start" font-weight="bold">Savings goals</text>
  <text x="520" y="134" font-family="Georgia, serif" font-size="10" fill="#d35b2d" text-anchor="start" font-weight="bold">🗾  Japan trip fund</text>
  <rect x="520" y="142" width="224" height="12" rx="3" fill="#e8e3dc"/>
  <rect x="520" y="142" width="168" height="12" rx="3" fill="#d35b2d"/>
  <text x="520" y="168" font-family="Georgia, serif" font-size="8" fill="#d35b2d" text-anchor="start">£2,100 / £2,800 · 75%</text>
  <text x="520" y="182" font-family="Georgia, serif" font-size="8" fill="#c9bfb2" text-anchor="start">Target: March 2027</text>
  <text x="520" y="204" font-family="Georgia, serif" font-size="10" fill="#6b7c3f" text-anchor="start" font-weight="bold">🚨  Emergency fund</text>
  <rect x="520" y="212" width="224" height="12" rx="3" fill="#e8e3dc"/>
  <rect x="520" y="212" width="179" height="12" rx="3" fill="#6b7c3f"/>
  <text x="520" y="238" font-family="Georgia, serif" font-size="8" fill="#6b7c3f" text-anchor="start">£4,500 / £5,000 · 90%</text>
  <text x="520" y="252" font-family="Georgia, serif" font-size="8" fill="#6b7c3f" text-anchor="start">Almost there!</text>
  <text x="520" y="274" font-family="Georgia, serif" font-size="10" fill="#c9922d" text-anchor="start" font-weight="bold">📱  New laptop fund</text>
  <rect x="520" y="282" width="224" height="12" rx="3" fill="#e8e3dc"/>
  <rect x="520" y="282" width="112" height="12" rx="3" fill="#c9922d"/>
  <text x="520" y="308" font-family="Georgia, serif" font-size="8" fill="#c9922d" text-anchor="start">£560 / £1,200 · 47%</text>
  <text x="520" y="322" font-family="Georgia, serif" font-size="8" fill="#c9bfb2" text-anchor="start">Need extra £50/mo to reach Dec</text>
  <rect x="520" y="338" width="224" height="2" fill="#c9bfb2"/>
  <text x="520" y="358" font-family="Georgia, serif" font-size="10" fill="#9e3b2e" text-anchor="start" font-weight="bold">Total saved: £7,160</text>
  <text x="520" y="374" font-family="Georgia, serif" font-size="9" fill="#3a3530" text-anchor="start">Rate: £400/mo avg</text>
  <text x="520" y="394" font-family="Georgia, serif" font-size="9" fill="#9e3b2e" text-anchor="start" font-weight="bold">Thrifty tip:</text>
  <text x="520" y="410" font-family="Georgia, serif" font-size="8" fill="#3a3530" text-anchor="start">Food is £120 over budget.</text>
  <text x="520" y="424" font-family="Georgia, serif" font-size="8" fill="#3a3530" text-anchor="start">Meal-prepping 2× saves ~£85.</text>
  <text x="520" y="438" font-family="Georgia, serif" font-size="8" fill="#3a3530" text-anchor="start">Try it Sunday?</text>
  <text x="520" y="460" font-family="Georgia, serif" font-size="8" fill="#d35b2d" text-anchor="start" font-style="italic">"Am I on track to fund</text>
  <text x="520" y="474" font-family="Georgia, serif" font-size="8" fill="#d35b2d" text-anchor="start" font-style="italic">Japan by March 2027?"</text>
  <text x="760" y="520" font-family="Georgia, serif" font-size="8" fill="#c9bfb2" text-anchor="end">via Thrifty Spender · Glee-fully Toolbox</text>
</svg>