<svg xmlns="http://www.w3.org/2000/svg" viewBox="0 0 800 534" width="800" height="534" role="img" aria-label="A retro-bright weekly calendar showing colour-coded time blocks for work, personal and health events with conflict detector">
  <defs>
    <filter id="sw" x="-5%" y="-5%" width="110%" height="115%">
      <feDropShadow dx="0" dy="2" stdDeviation="3" flood-color="#9e3b2e" flood-opacity="0.12"/>
    </filter>
  </defs>
  <rect width="800" height="534" fill="#f6f2ee"/>
  <rect x="0" y="0" width="800" height="6" fill="#d35b2d"/>
  <rect x="24" y="22" width="752" height="490" rx="14" fill="#e8e3dc" stroke="#c9bfb2" stroke-width="1.5" filter="url(#sw)"/>
  <rect x="24" y="22" width="752" height="52" rx="14" fill="#d35b2d"/>
  <rect x="24" y="52" width="752" height="22" fill="#d35b2d"/>
  <text x="48" y="54" font-family="Georgia, serif" font-size="18" font-weight="bold" fill="#f6f2ee" letter-spacing="0.5">Scheduling Wizard</text>
  <text x="48" y="70" font-family="Georgia, serif" font-size="11" fill="#f6f2ee" opacity="0.8" font-style="italic">Find the time. Make it count. Stop double-booking yourself.</text>
  <circle cx="720" cy="38" r="7" fill="#f6f2ee" opacity="0.3"/>
  <circle cx="738" cy="38" r="7" fill="#f6f2ee" opacity="0.5"/>
  <circle cx="756" cy="38" r="7" fill="#f6f2ee" opacity="0.7"/>
  <text x="107" y="108" font-family="Georgia, serif" font-size="9" fill="#9e3b2e" text-anchor="middle" font-weight="bold">MON 26</text>
  <text x="211" y="108" font-family="Georgia, serif" font-size="9" fill="#9e3b2e" text-anchor="middle" font-weight="bold">TUE 27</text>
  <text x="315" y="108" font-family="Georgia, serif" font-size="9" fill="#9e3b2e" text-anchor="middle" font-weight="bold">WED 28</text>
  <text x="419" y="108" font-family="Georgia, serif" font-size="9" fill="#c9922d" text-anchor="middle" font-weight="bold">THU 29</text>
  <text x="523" y="108" font-family="Georgia, serif" font-size="9" fill="#c9922d" text-anchor="middle" font-weight="bold">FRI 30</text>
  <text x="627" y="108" font-family="Georgia, serif" font-size="9" fill="#2d7c7c" text-anchor="middle" font-weight="bold">SAT 31</text>
  <text x="731" y="108" font-family="Georgia, serif" font-size="9" fill="#2d7c7c" text-anchor="middle" font-weight="bold">SUN 1</text>
  <text x="46" y="148" font-family="Georgia, serif" font-size="7" fill="#c9bfb2" text-anchor="end">09:00</text>
  <text x="46" y="188" font-family="Georgia, serif" font-size="7" fill="#c9bfb2" text-anchor="end">10:00</text>
  <text x="46" y="228" font-family="Georgia, serif" font-size="7" fill="#c9bfb2" text-anchor="end">11:00</text>
  <text x="46" y="268" font-family="Georgia, serif" font-size="7" fill="#c9bfb2" text-anchor="end">12:00</text>
  <text x="46" y="308" font-family="Georgia, serif" font-size="7" fill="#c9bfb2" text-anchor="end">13:00</text>
  <text x="46" y="348" font-family="Georgia, serif" font-size="7" fill="#c9bfb2" text-anchor="end">14:00</text>
  <text x="46" y="388" font-family="Georgia, serif" font-size="7" fill="#c9bfb2" text-anchor="end">15:00</text>
  <text x="46" y="428" font-family="Georgia, serif" font-size="7" fill="#c9bfb2" text-anchor="end">16:00</text>
  <text x="46" y="468" font-family="Georgia, serif" font-size="7" fill="#c9bfb2" text-anchor="end">17:00</text>
  <rect x="54" y="118" width="724" height="380" rx="8" fill="#fff" stroke="#c9bfb2" stroke-width="1"/>
  <line x1="54" y1="148" x2="778" y2="148" stroke="#e8e3dc" stroke-width="1"/>
  <line x1="54" y1="188" x2="778" y2="188" stroke="#e8e3dc" stroke-width="1"/>
  <line x1="54" y1="228" x2="778" y2="228" stroke="#e8e3dc" stroke-width="1"/>
  <line x1="54" y1="268" x2="778" y2="268" stroke="#e8e3dc" stroke-width="1"/>
  <line x1="54" y1="308" x2="778" y2="308" stroke="#e8e3dc" stroke-width="1"/>
  <line x1="54" y1="348" x2="778" y2="348" stroke="#e8e3dc" stroke-width="1"/>
  <line x1="54" y1="388" x2="778" y2="388" stroke="#e8e3dc" stroke-width="1"/>
  <line x1="54" y1="428" x2="778" y2="428" stroke="#e8e3dc" stroke-width="1"/>
  <line x1="54" y1="468" x2="778" y2="468" stroke="#e8e3dc" stroke-width="1"/>
  <line x1="158" y1="118" x2="158" y2="498" stroke="#e8e3dc" stroke-width="1"/>
  <line x1="262" y1="118" x2="262" y2="498" stroke="#e8e3dc" stroke-width="1"/>
  <line x1="366" y1="118" x2="366" y2="498" stroke="#e8e3dc" stroke-width="1"/>
  <line x1="470" y1="118" x2="470" y2="498" stroke="#e8e3dc" stroke-width="1"/>
  <line x1="574" y1="118" x2="574" y2="498" stroke="#e8e3dc" stroke-width="1"/>
  <line x1="678" y1="118" x2="678" y2="498" stroke="#e8e3dc" stroke-width="1"/>
  <rect x="60" y="128" width="92" height="76" rx="4" fill="#d35b2d"/>
  <text x="106" y="142" font-family="Georgia, serif" font-size="8" fill="#f6f2ee" text-anchor="middle" font-weight="bold">Q2 Report</text>
  <text x="106" y="155" font-family="Georgia, serif" font-size="7" fill="#f6f2ee" text-anchor="middle">Due 10:00 ⚠</text>
  <rect x="60" y="228" width="92" height="36" rx="4" fill="#c9922d"/>
  <text x="106" y="242" font-family="Georgia, serif" font-size="8" fill="#f6f2ee" text-anchor="middle" font-weight="bold">Team sync</text>
  <rect x="60" y="388" width="92" height="76" rx="4" fill="#6b7c3f"/>
  <text x="106" y="402" font-family="Georgia, serif" font-size="8" fill="#f6f2ee" text-anchor="middle" font-weight="bold">Gym 🏋️</text>
  <rect x="164" y="148" width="92" height="56" rx="4" fill="#c9922d"/>
  <text x="210" y="162" font-family="Georgia, serif" font-size="8" fill="#f6f2ee" text-anchor="middle" font-weight="bold">1-on-1: Sarah</text>
  <text x="210" y="175" font-family="Georgia, serif" font-size="7" fill="#f6f2ee" text-anchor="middle">10:00–11:00</text>
  <rect x="164" y="348" width="92" height="76" rx="4" fill="#2d7c7c"/>
  <text x="210" y="362" font-family="Georgia, serif" font-size="8" fill="#f6f2ee" text-anchor="middle" font-weight="bold">Focus block</text>
  <text x="210" y="375" font-family="Georgia, serif" font-size="7" fill="#f6f2ee" text-anchor="middle">Deep work</text>
  <rect x="268" y="128" width="92" height="116" rx="4" fill="#9e3b2e"/>
  <text x="314" y="142" font-family="Georgia, serif" font-size="8" fill="#f6f2ee" text-anchor="middle" font-weight="bold">Design Review</text>
  <text x="314" y="155" font-family="Georgia, serif" font-size="7" fill="#f6f2ee" text-anchor="middle">09:00–11:00</text>
  <rect x="268" y="268" width="92" height="36" rx="4" fill="#c9922d"/>
  <text x="314" y="282" font-family="Georgia, serif" font-size="8" fill="#f6f2ee" text-anchor="middle" font-weight="bold">Lunch: Kiln</text>
  <rect x="372" y="148" width="92" height="56" rx="4" fill="#d35b2d"/>
  <text x="418" y="162" font-family="Georgia, serif" font-size="8" fill="#f6f2ee" text-anchor="middle" font-weight="bold">Sprint demo</text>
  <text x="418" y="175" font-family="Georgia, serif" font-size="7" fill="#f6f2ee" text-anchor="middle">10:00–11:00</text>
  <rect x="372" y="188" width="92" height="56" rx="4" fill="#d35b2d" stroke="#fff" stroke-width="1.5"/>
  <text x="418" y="208" font-family="Georgia, serif" font-size="8" fill="#fff" text-anchor="middle" font-weight="bold">⚠ CONFLICT</text>
  <text x="418" y="222" font-family="Georgia, serif" font-size="7" fill="#fff" text-anchor="middle">Client call</text>
  <text x="418" y="234" font-family="Georgia, serif" font-size="7" fill="#fff" text-anchor="middle">overlaps!</text>
  <rect x="476" y="348" width="92" height="76" rx="4" fill="#6b7c3f"/>
  <text x="522" y="362" font-family="Georgia, serif" font-size="8" fill="#f6f2ee" text-anchor="middle" font-weight="bold">Weekly review</text>
  <rect x="580" y="228" width="92" height="76" rx="4" fill="#2d7c7c"/>
  <text x="626" y="242" font-family="Georgia, serif" font-size="8" fill="#f6f2ee" text-anchor="middle" font-weight="bold">🧘 Yoga</text>
  <rect x="684" y="308" width="92" height="76" rx="4" fill="#c9922d"/>
  <text x="730" y="322" font-family="Georgia, serif" font-size="8" fill="#f6f2ee" text-anchor="middle" font-weight="bold">🍳 Brunch</text>
  <rect x="54" y="500" width="140" height="18" rx="9" fill="#6b7c3f"/>
  <text x="124" y="511" font-family="Georgia, serif" font-size="8" fill="#f6f2ee" text-anchor="middle">✓  Fri AM free (3h)</text>
  <text x="210" y="512" font-family="Georgia, serif" font-size="8" fill="#d35b2d" text-anchor="start">⚠  Thu conflict · move client call to Fri 11:00</text>
  <text x="760" y="520" font-family="Georgia, serif" font-size="8" fill="#c9bfb2" text-anchor="end">via Scheduling Wizard · Glee-fully Toolbox</text>
</svg>