<svg xmlns="http://www.w3.org/2000/svg" viewBox="0 0 800 534" width="800" height="534" role="img" aria-label="A retro-bright vision board showing lifestyle goals arranged in a mosaic layout with progress indicators">
  <defs>
    <filter id="lw" x="-5%" y="-5%" width="110%" height="115%">
      <feDropShadow dx="0" dy="2" stdDeviation="3" flood-color="#9e3b2e" flood-opacity="0.12"/>
    </filter>
  </defs>
  <rect width="800" height="534" fill="#f6f2ee"/>
  <rect x="0" y="0" width="800" height="6" fill="#d35b2d"/>
  <rect x="24" y="22" width="752" height="490" rx="14" fill="#e8e3dc" stroke="#c9bfb2" stroke-width="1.5" filter="url(#lw)"/>
  <rect x="24" y="22" width="752" height="52" rx="14" fill="#d35b2d"/>
  <rect x="24" y="52" width="752" height="22" fill="#d35b2d"/>
  <text x="48" y="54" font-family="Georgia, serif" font-size="18" font-weight="bold" fill="#f6f2ee" letter-spacing="0.5">Lifestyle Wallboard</text>
  <text x="48" y="70" font-family="Georgia, serif" font-size="11" fill="#f6f2ee" opacity="0.8" font-style="italic">See your goals. Shape your days around them.</text>
  <circle cx="720" cy="38" r="7" fill="#f6f2ee" opacity="0.3"/>
  <circle cx="738" cy="38" r="7" fill="#f6f2ee" opacity="0.5"/>
  <circle cx="756" cy="38" r="7" fill="#f6f2ee" opacity="0.7"/>
  <rect x="40" y="88" width="500" height="400" rx="10" fill="#f6f2ee" stroke="#c9bfb2" stroke-width="1"/>
  <rect x="62" y="110" width="180" height="100" rx="8" fill="#d35b2d"/>
  <text x="152" y="134" font-family="Georgia, serif" font-size="11" fill="#f6f2ee" text-anchor="middle" font-weight="bold">🚀  CAREER</text>
  <text x="152" y="152" font-family="Georgia, serif" font-size="8" fill="#f6f2ee" text-anchor="middle" font-weight="bold">Research Lead by Dec 2027</text>
  <text x="152" y="166" font-family="Georgia, serif" font-size="8" fill="#f6f2ee" text-anchor="middle">Lead a team of 4+</text>
  <text x="152" y="180" font-family="Georgia, serif" font-size="8" fill="#f6f2ee" text-anchor="middle">Present at 1 conference</text>
  <rect x="72" y="192" width="160" height="6" rx="3" fill="#e8e3dc"/>
  <rect x="72" y="192" width="104" height="6" rx="3" fill="#f6f2ee"/>
  <text x="152" y="206" font-family="Georgia, serif" font-size="7" fill="#f6f2ee" text-anchor="middle">65% there</text>
  <rect x="258" y="110" width="120" height="100" rx="8" fill="#6b7c3f"/>
  <text x="318" y="134" font-family="Georgia, serif" font-size="11" fill="#f6f2ee" text-anchor="middle" font-weight="bold">💪  HEALTH</text>
  <text x="318" y="152" font-family="Georgia, serif" font-size="8" fill="#f6f2ee" text-anchor="middle">Gym 3×/week</text>
  <text x="318" y="166" font-family="Georgia, serif" font-size="8" fill="#f6f2ee" text-anchor="middle">Half marathon</text>
  <text x="318" y="180" font-family="Georgia, serif" font-size="8" fill="#f6f2ee" text-anchor="middle">8h sleep avg</text>
  <rect x="268" y="192" width="100" height="6" rx="3" fill="#e8e3dc"/>
  <rect x="268" y="192" width="60" height="6" rx="3" fill="#f6f2ee"/>
  <text x="318" y="206" font-family="Georgia, serif" font-size="7" fill="#f6f2ee" text-anchor="middle">60%</text>
  <rect x="390" y="110" width="140" height="180" rx="8" fill="#2d7c7c"/>
  <text x="460" y="140" font-family="Georgia, serif" font-size="12" fill="#f6f2ee" text-anchor="middle" font-weight="bold">✈️  TRAVEL</text>
  <text x="460" y="162" font-family="Georgia, serif" font-size="9" fill="#f6f2ee" text-anchor="middle">🗾 Japan 2027</text>
  <text x="460" y="178" font-family="Georgia, serif" font-size="9" fill="#f6f2ee" text-anchor="middle">🇵🇪 Peru 2027</text>
  <text x="460" y="194" font-family="Georgia, serif" font-size="9" fill="#c9bfb2" text-anchor="middle">🇮🇸 Iceland 2028</text>
  <circle cx="460" cy="244" r="30" fill="#f6f2ee"/>
  <text x="460" y="248" font-family="Georgia, serif" font-size="10" fill="#2d7c7c" text-anchor="middle" font-weight="bold">3/12</text>
  <text x="460" y="262" font-family="Georgia, serif" font-size="7" fill="#2d7c7c" text-anchor="middle">countries 2026</text>
  <text x="460" y="280" font-family="Georgia, serif" font-size="8" fill="#6b7c3f" text-anchor="middle" font-weight="bold">£7,400 saved</text>
  <rect x="62" y="220" width="180" height="88" rx="8" fill="#c9922d"/>
  <text x="152" y="246" font-family="Georgia, serif" font-size="11" fill="#f6f2ee" text-anchor="middle" font-weight="bold">📚  LEARNING</text>
  <text x="152" y="262" font-family="Georgia, serif" font-size="8" fill="#f6f2ee" text-anchor="middle">Read 40 books this year</text>
  <text x="152" y="276" font-family="Georgia, serif" font-size="8" fill="#f6f2ee" text-anchor="middle">Learn Japanese (conversational)</text>
  <rect x="72" y="288" width="160" height="6" rx="3" fill="#e8e3dc"/>
  <rect x="72" y="288" width="136" height="6" rx="3" fill="#f6f2ee"/>
  <text x="152" y="300" font-family="Georgia, serif" font-size="7" fill="#f6f2ee" text-anchor="middle">34/40 books · 85%</text>
  <rect x="258" y="220" width="120" height="88" rx="8" fill="#fff" stroke="#c9bfb2" stroke-width="1"/>
  <text x="318" y="246" font-family="Georgia, serif" font-size="9" fill="#9e3b2e" text-anchor="middle" font-style="italic">"I make</text>
  <text x="318" y="261" font-family="Georgia, serif" font-size="9" fill="#9e3b2e" text-anchor="middle" font-style="italic">intentional</text>
  <text x="318" y="276" font-family="Georgia, serif" font-size="9" fill="#9e3b2e" text-anchor="middle" font-style="italic">choices daily."</text>
  <text x="318" y="296" font-family="Georgia, serif" font-size="7" fill="#c9bfb2" text-anchor="middle">📌  pinned</text>
  <rect x="62" y="318" width="180" height="88" rx="8" fill="#9e3b2e"/>
  <text x="152" y="342" font-family="Georgia, serif" font-size="11" fill="#f6f2ee" text-anchor="middle" font-weight="bold">🏠  HOME</text>
  <text x="152" y="358" font-family="Georgia, serif" font-size="8" fill="#f6f2ee" text-anchor="middle">Redecorate living room</text>
  <text x="152" y="372" font-family="Georgia, serif" font-size="8" fill="#f6f2ee" text-anchor="middle">Start balcony garden</text>
  <text x="152" y="386" font-family="Georgia, serif" font-size="8" fill="#f6f2ee" text-anchor="middle">Get a cat? 🐱</text>
  <rect x="72" y="398" width="160" height="6" rx="3" fill="#e8e3dc"/>
  <rect x="72" y="398" width="80" height="6" rx="3" fill="#f6f2ee"/>
  <text x="152" y="410" font-family="Georgia, serif" font-size="7" fill="#f6f2ee" text-anchor="middle">50% — sourcing furniture</text>
  <rect x="258" y="318" width="270" height="88" rx="8" fill="#6b7c3f"/>
  <text x="393" y="342" font-family="Georgia, serif" font-size="11" fill="#f6f2ee" text-anchor="middle" font-weight="bold">❤️  CONNECTION</text>
  <text x="393" y="358" font-family="Georgia, serif" font-size="8" fill="#f6f2ee" text-anchor="middle">Monthly family dinner · Weekly friend catch-up</text>
  <text x="393" y="372" font-family="Georgia, serif" font-size="8" fill="#f6f2ee" text-anchor="middle">Mentor 1 person · Volunteer monthly</text>
  <rect x="268" y="386" width="250" height="6" rx="3" fill="#e8e3dc"/>
  <rect x="268" y="386" width="150" height="6" rx="3" fill="#f6f2ee"/>
  <text x="393" y="406" font-family="Georgia, serif" font-size="7" fill="#f6f2ee" text-anchor="middle">60% · 3 goals active</text>
  <rect x="560" y="88" width="204" height="400" rx="10" fill="#fff" stroke="#c9bfb2" stroke-width="1"/>
  <text x="580" y="112" font-family="Georgia, serif" font-size="11" fill="#9e3b2e" text-anchor="start" font-weight="bold">Board overview</text>
  <text x="580" y="132" font-family="Georgia, serif" font-size="9" fill="#3a3530" text-anchor="start">Domains: 6</text>
  <text x="580" y="148" font-family="Georgia, serif" font-size="9" fill="#3a3530" text-anchor="start">Total goals: 18</text>
  <text x="580" y="164" font-family="Georgia, serif" font-size="9" fill="#3a3530" text-anchor="start">Active: 11 · Done: 5</text>
  <text x="580" y="180" font-family="Georgia, serif" font-size="9" fill="#c9bfb2" text-anchor="start">On hold: 2</text>
  <rect x="580" y="196" width="164" height="2" fill="#c9bfb2"/>
  <text x="580" y="214" font-family="Georgia, serif" font-size="9" fill="#9e3b2e" text-anchor="start" font-weight="bold">Weekly check-in:</text>
  <text x="580" y="230" font-family="Georgia, serif" font-size="8" fill="#6b7c3f" text-anchor="start">✓  Books: on track</text>
  <text x="580" y="246" font-family="Georgia, serif" font-size="8" fill="#6b7c3f" text-anchor="start">✓  Savings: on track</text>
  <text x="580" y="262" font-family="Georgia, serif" font-size="8" fill="#c9922d" text-anchor="start">→  Gym: 2/3 this week</text>
  <text x="580" y="278" font-family="Georgia, serif" font-size="8" fill="#c9922d" text-anchor="start">→  Sleep avg: 6.8h ⚠</text>
  <rect x="580" y="296" width="164" height="2" fill="#c9bfb2"/>
  <text x="580" y="316" font-family="Georgia, serif" font-size="8" fill="#d35b2d" text-anchor="start" font-style="italic">"What should I focus on</text>
  <text x="580" y="330" font-family="Georgia, serif" font-size="8" fill="#d35b2d" text-anchor="start" font-style="italic">this month to make the</text>
  <text x="580" y="344" font-family="Georgia, serif" font-size="8" fill="#d35b2d" text-anchor="start" font-style="italic">biggest progress?"</text>
  <text x="580" y="378" font-family="Georgia, serif" font-size="8" fill="#c9bfb2" text-anchor="start">Updated weekly ·</text>
  <text x="580" y="394" font-family="Georgia, serif" font-size="8" fill="#c9bfb2" text-anchor="start">synced with your</text>
  <text x="580" y="410" font-family="Georgia, serif" font-size="8" fill="#c9bfb2" text-anchor="start">other Glee tools.</text>
  <text x="580" y="450" font-family="Georgia, serif" font-size="8" fill="#c9bfb2" text-anchor="start">Board last seen:</text>
  <text x="580" y="466" font-family="Georgia, serif" font-size="8" fill="#9e3b2e" text-anchor="start" font-weight="bold">Today, 08:15</text>
  <text x="760" y="520" font-family="Georgia, serif" font-size="8" fill="#c9bfb2" text-anchor="end">via Lifestyle Wallboard · Glee-fully Toolbox</text>
</svg>