<svg xmlns="http://www.w3.org/2000/svg" viewBox="0 0 800 534" width="800" height="534" role="img" aria-label="A retro-bright local community marketplace showing listing cards with photos, prices and neighbourhood tags">
  <defs>
    <filter id="nb" x="-5%" y="-5%" width="110%" height="115%">
      <feDropShadow dx="0" dy="2" stdDeviation="3" flood-color="#9e3b2e" flood-opacity="0.12"/>
    </filter>
  </defs>
  <rect width="800" height="534" fill="#f6f2ee"/>
  <rect x="0" y="0" width="800" height="6" fill="#d35b2d"/>
  <rect x="24" y="22" width="752" height="490" rx="14" fill="#e8e3dc" stroke="#c9bfb2" stroke-width="1.5" filter="url(#nb)"/>
  <rect x="24" y="22" width="752" height="52" rx="14" fill="#d35b2d"/>
  <rect x="24" y="52" width="752" height="22" fill="#d35b2d"/>
  <text x="48" y="54" font-family="Georgia, serif" font-size="18" font-weight="bold" fill="#f6f2ee" letter-spacing="0.5">Neighborly Bazaar</text>
  <text x="48" y="70" font-family="Georgia, serif" font-size="11" fill="#f6f2ee" opacity="0.8" font-style="italic">Buy, sell, swap — within walking distance.</text>
  <circle cx="720" cy="38" r="7" fill="#f6f2ee" opacity="0.3"/>
  <circle cx="738" cy="38" r="7" fill="#f6f2ee" opacity="0.5"/>
  <circle cx="756" cy="38" r="7" fill="#f6f2ee" opacity="0.7"/>
  <rect x="48" y="96" width="500" height="28" rx="14" fill="#fff" stroke="#c9bfb2" stroke-width="1"/>
  <text x="68" y="113" font-family="Georgia, serif" font-size="9" fill="#c9bfb2" text-anchor="start">🔍  Search local listings — e.g. 'vintage lamp' or 'kid's bike'</text>
  <rect x="40" y="134" width="220" height="200" rx="10" fill="#fff" stroke="#c9bfb2" stroke-width="1"/>
  <rect x="40" y="134" width="220" height="90" rx="10" fill="#e8e3dc"/>
  <text x="150" y="185" font-family="Georgia, serif" font-size="36" fill="#3a3530" text-anchor="middle">🪑</text>
  <rect x="50" y="140" width="70" height="18" rx="9" fill="#d35b2d"/>
  <text x="85" y="151" font-family="Georgia, serif" font-size="7" fill="#f6f2ee" text-anchor="middle">FEATURED</text>
  <text x="60" y="242" font-family="Georgia, serif" font-size="10" fill="#3a3530" text-anchor="start" font-weight="bold">Eames Replica Chair</text>
  <text x="60" y="256" font-family="Georgia, serif" font-size="8" fill="#c9bfb2" text-anchor="start">Ivory shell · excellent condition</text>
  <text x="60" y="272" font-family="Georgia, serif" font-size="9" fill="#9e3b2e" text-anchor="start" font-weight="bold">£85 · Hackney · Listed today</text>
  <rect x="60" y="282" width="68" height="18" rx="9" fill="#6b7c3f"/>
  <text x="94" y="293" font-family="Georgia, serif" font-size="8" fill="#f6f2ee" text-anchor="middle">✓ Verified</text>
  <rect x="136" y="282" width="64" height="18" rx="9" fill="#e8e3dc"/>
  <text x="168" y="293" font-family="Georgia, serif" font-size="8" fill="#9e3b2e" text-anchor="middle">Furniture</text>
  <rect x="60" y="306" width="88" height="18" rx="9" fill="#d35b2d"/>
  <text x="104" y="317" font-family="Georgia, serif" font-size="8" fill="#f6f2ee" text-anchor="middle">Message Seller</text>
  <rect x="272" y="134" width="220" height="200" rx="10" fill="#fff" stroke="#c9bfb2" stroke-width="1"/>
  <rect x="272" y="134" width="220" height="90" rx="10" fill="#e8e3dc"/>
  <text x="382" y="185" font-family="Georgia, serif" font-size="36" fill="#3a3530" text-anchor="middle">📚</text>
  <rect x="282" y="140" width="58" height="18" rx="9" fill="#c9922d"/>
  <text x="311" y="151" font-family="Georgia, serif" font-size="7" fill="#f6f2ee" text-anchor="middle">SWAP</text>
  <text x="292" y="242" font-family="Georgia, serif" font-size="10" fill="#3a3530" text-anchor="start" font-weight="bold">Graphic novel collection</text>
  <text x="292" y="256" font-family="Georgia, serif" font-size="8" fill="#c9bfb2" text-anchor="start">34 issues · good cond.</text>
  <text x="292" y="272" font-family="Georgia, serif" font-size="9" fill="#9e3b2e" text-anchor="start" font-weight="bold">Swap for: board games</text>
  <text x="292" y="286" font-family="Georgia, serif" font-size="8" fill="#c9bfb2" text-anchor="start">Islington · 0.3 miles away</text>
  <rect x="292" y="300" width="100" height="18" rx="9" fill="#c9922d"/>
  <text x="342" y="311" font-family="Georgia, serif" font-size="8" fill="#f6f2ee" text-anchor="middle">Propose Swap</text>
  <rect x="40" y="344" width="452" height="80" rx="10" fill="#fff" stroke="#c9bfb2" stroke-width="1"/>
  <rect x="40" y="344" width="76" height="80" rx="10" fill="#e8e3dc"/>
  <text x="78" y="387" font-family="Georgia, serif" font-size="28" fill="#3a3530" text-anchor="middle">🚲</text>
  <text x="128" y="368" font-family="Georgia, serif" font-size="10" fill="#3a3530" text-anchor="start" font-weight="bold">Kids balance bike — Strider 12", red, age 2–4</text>
  <text x="128" y="384" font-family="Georgia, serif" font-size="8" fill="#c9bfb2" text-anchor="start">Includes helmet · Very good condition</text>
  <text x="128" y="400" font-family="Georgia, serif" font-size="9" fill="#9e3b2e" text-anchor="start" font-weight="bold">£45 · Bethnal Green · Posted 2h ago</text>
  <rect x="390" y="358" width="86" height="18" rx="9" fill="#d35b2d"/>
  <text x="433" y="369" font-family="Georgia, serif" font-size="8" fill="#f6f2ee" text-anchor="middle">Message Seller</text>
  <rect x="390" y="382" width="76" height="18" rx="9" fill="#6b7c3f"/>
  <text x="428" y="393" font-family="Georgia, serif" font-size="8" fill="#f6f2ee" text-anchor="middle">Make Offer</text>
  <rect x="40" y="434" width="452" height="54" rx="10" fill="#f6f2ee" stroke="#c9bfb2" stroke-width="1"/>
  <rect x="48" y="440" width="312" height="40" rx="7" fill="#fff" stroke="#c9bfb2" stroke-width="1"/>
  <text x="64" y="456" font-family="Georgia, serif" font-size="8" fill="#3a3530" text-anchor="start" font-style="italic">"Is the chair still available? I can collect tomorrow"</text>
  <rect x="370" y="444" width="114" height="26" rx="13" fill="#d35b2d"/>
  <text x="427" y="460" font-family="Georgia, serif" font-size="9" fill="#f6f2ee" text-anchor="middle">Send message →</text>
  <rect x="510" y="134" width="254" height="200" rx="10" fill="#f6f2ee" stroke="#c9bfb2" stroke-width="1"/>
  <text x="530" y="158" font-family="Georgia, serif" font-size="10" fill="#9e3b2e" text-anchor="start" font-weight="bold">Seller: @eleanor_hackney</text>
  <circle cx="708" cy="172" r="22" fill="#c9bfb2"/>
  <text x="708" y="176" font-family="Georgia, serif" font-size="16" fill="#9e3b2e" text-anchor="middle" font-weight="bold">E</text>
  <text x="530" y="178" font-family="Georgia, serif" font-size="8" fill="#c9922d" text-anchor="start">⭐⭐⭐⭐⭐  4.9 (47 reviews)</text>
  <text x="530" y="196" font-family="Georgia, serif" font-size="9" fill="#3a3530" text-anchor="start">Items sold: 23</text>
  <text x="530" y="212" font-family="Georgia, serif" font-size="9" fill="#3a3530" text-anchor="start">Member since: Jan 2024</text>
  <text x="530" y="228" font-family="Georgia, serif" font-size="9" fill="#6b7c3f" text-anchor="start">Response rate: 98%</text>
  <text x="530" y="244" font-family="Georgia, serif" font-size="9" fill="#6b7c3f" text-anchor="start">Usually replies in: <30 min</text>
  <text x="530" y="264" font-family="Georgia, serif" font-size="8" fill="#c9bfb2" text-anchor="start">📍 Hackney · 0.8 mi away</text>
  <rect x="510" y="344" width="254" height="140" rx="10" fill="#fff" stroke="#c9bfb2" stroke-width="1"/>
  <text x="530" y="368" font-family="Georgia, serif" font-size="10" fill="#9e3b2e" text-anchor="start" font-weight="bold">Local bazaar stats:</text>
  <text x="530" y="386" font-family="Georgia, serif" font-size="9" fill="#3a3530" text-anchor="start">Listings near you: 148</text>
  <text x="530" y="402" font-family="Georgia, serif" font-size="9" fill="#d35b2d" text-anchor="start">New today: 12</text>
  <text x="530" y="418" font-family="Georgia, serif" font-size="9" fill="#c9922d" text-anchor="start">Swaps nearby: 8</text>
  <text x="530" y="434" font-family="Georgia, serif" font-size="9" fill="#6b7c3f" text-anchor="start">Free to collect: 6</text>
  <text x="530" y="452" font-family="Georgia, serif" font-size="8" fill="#d35b2d" text-anchor="start" font-style="italic">"What's for sale near me under £50 for a toddler?"</text>
  <text x="760" y="520" font-family="Georgia, serif" font-size="8" fill="#c9bfb2" text-anchor="end">via Neighborly Bazaar · Glee-fully Toolbox</text>
</svg>