<svg xmlns="http://www.w3.org/2000/svg" viewBox="0 0 800 534" width="800" height="534" role="img" aria-label="A retro-bright health check-in dashboard showing weekly wellbeing form, symptom tracker, vital signs log, and appointment reminder">
  <defs>
    <filter id="cc" x="-5%" y="-5%" width="110%" height="115%">
      <feDropShadow dx="0" dy="2" stdDeviation="3" flood-color="#9e3b2e" flood-opacity="0.12"/>
    </filter>
  </defs>
  <rect width="800" height="534" fill="#f6f2ee"/>
  <rect x="0" y="0" width="800" height="6" fill="#d35b2d"/>
  <rect x="24" y="22" width="752" height="490" rx="14" fill="#e8e3dc" stroke="#c9bfb2" stroke-width="1.5" filter="url(#cc)"/>
  <rect x="24" y="22" width="752" height="52" rx="14" fill="#d35b2d"/>
  <rect x="24" y="52" width="752" height="22" fill="#d35b2d"/>
  <text x="48" y="54" font-family="Georgia, serif" font-size="18" font-weight="bold" fill="#f6f2ee" letter-spacing="0.5">Care Check</text>
  <text x="48" y="70" font-family="Georgia, serif" font-size="11" fill="#f6f2ee" opacity="0.8" font-style="italic">Know your body. Track what matters. Act early.</text>
  <circle cx="720" cy="38" r="7" fill="#f6f2ee" opacity="0.3"/>
  <circle cx="738" cy="38" r="7" fill="#f6f2ee" opacity="0.5"/>
  <circle cx="756" cy="38" r="7" fill="#f6f2ee" opacity="0.7"/>
  <rect x="40" y="88" width="440" height="400" rx="10" fill="#fff" stroke="#c9bfb2" stroke-width="1"/>
  <rect x="40" y="88" width="440" height="28" rx="10" fill="#d35b2d"/>
  <text x="260" y="107" font-family="Georgia, serif" font-size="12" fill="#f6f2ee" text-anchor="middle" font-weight="bold">Weekly Check-In — May 27, 2026</text>
  <text x="60" y="134" font-family="Georgia, serif" font-size="10" fill="#9e3b2e" text-anchor="start" font-weight="bold">How are you feeling overall?</text>
  <rect x="60" y="142" width="52" height="22" rx="11" fill="#e8e3dc"/>
  <text x="86" y="156" font-family="Georgia, serif" font-size="9" fill="#9e3b2e" text-anchor="middle">😞 1</text>
  <rect x="120" y="142" width="52" height="22" rx="11" fill="#e8e3dc"/>
  <text x="146" y="156" font-family="Georgia, serif" font-size="9" fill="#9e3b2e" text-anchor="middle">😕 2</text>
  <rect x="180" y="142" width="52" height="22" rx="11" fill="#e8e3dc"/>
  <text x="206" y="156" font-family="Georgia, serif" font-size="9" fill="#9e3b2e" text-anchor="middle">😐 3</text>
  <rect x="240" y="142" width="52" height="22" rx="11" fill="#6b7c3f"/>
  <text x="266" y="156" font-family="Georgia, serif" font-size="9" fill="#f6f2ee" text-anchor="middle">😊 4 ✓</text>
  <rect x="300" y="142" width="52" height="22" rx="11" fill="#e8e3dc"/>
  <text x="326" y="156" font-family="Georgia, serif" font-size="9" fill="#9e3b2e" text-anchor="middle">😄 5</text>
  <text x="60" y="180" font-family="Georgia, serif" font-size="10" fill="#9e3b2e" text-anchor="start" font-weight="bold">Energy levels:</text>
  <rect x="60" y="188" width="350" height="12" rx="3" fill="#e8e3dc"/>
  <rect x="60" y="188" width="245" height="12" rx="3" fill="#c9922d"/>
  <text x="60" y="214" font-family="Georgia, serif" font-size="8" fill="#c9922d" text-anchor="start">7 / 10 — better than last week (+1)</text>
  <text x="60" y="234" font-family="Georgia, serif" font-size="10" fill="#9e3b2e" text-anchor="start" font-weight="bold">Sleep last night:</text>
  <rect x="60" y="242" width="350" height="12" rx="3" fill="#e8e3dc"/>
  <rect x="60" y="242" width="280" height="12" rx="3" fill="#6b7c3f"/>
  <text x="60" y="268" font-family="Georgia, serif" font-size="8" fill="#6b7c3f" text-anchor="start">8.0h — best this week ✓</text>
  <text x="60" y="288" font-family="Georgia, serif" font-size="10" fill="#9e3b2e" text-anchor="start" font-weight="bold">Any symptoms today?</text>
  <rect x="60" y="296" width="74" height="22" rx="11" fill="#e8e3dc"/>
  <text x="97" y="310" font-family="Georgia, serif" font-size="9" fill="#9e3b2e" text-anchor="middle">Headache</text>
  <rect x="142" y="296" width="64" height="22" rx="11" fill="#e8e3dc"/>
  <text x="174" y="310" font-family="Georgia, serif" font-size="9" fill="#9e3b2e" text-anchor="middle">Fatigue</text>
  <rect x="214" y="296" width="80" height="22" rx="11" fill="#e8e3dc"/>
  <text x="254" y="310" font-family="Georgia, serif" font-size="9" fill="#9e3b2e" text-anchor="middle">Sore throat</text>
  <rect x="302" y="296" width="60" height="22" rx="11" fill="#e8e3dc"/>
  <text x="332" y="310" font-family="Georgia, serif" font-size="9" fill="#9e3b2e" text-anchor="middle">Nausea</text>
  <rect x="370" y="296" width="50" height="22" rx="11" fill="#6b7c3f"/>
  <text x="395" y="310" font-family="Georgia, serif" font-size="9" fill="#f6f2ee" text-anchor="middle">None ✓</text>
  <text x="60" y="330" font-family="Georgia, serif" font-size="8" fill="#6b7c3f" text-anchor="start">✓ None selected — good day!</text>
  <text x="60" y="350" font-family="Georgia, serif" font-size="10" fill="#9e3b2e" text-anchor="start" font-weight="bold">Vitals (if measured):</text>
  <text x="60" y="366" font-family="Georgia, serif" font-size="9" fill="#6b7c3f" text-anchor="start">Blood pressure:  118 / 74  ✓ normal</text>
  <text x="60" y="382" font-family="Georgia, serif" font-size="9" fill="#6b7c3f" text-anchor="start">Resting HR:  62 bpm  ✓ good</text>
  <text x="60" y="398" font-family="Georgia, serif" font-size="9" fill="#3a3530" text-anchor="start">Weight:  72.4 kg  (same as last week)</text>
  <text x="60" y="414" font-family="Georgia, serif" font-size="9" fill="#c9922d" text-anchor="start">Steps today:  8,432  (goal: 10,000)</text>
  <rect x="60" y="430" width="400" height="2" fill="#c9bfb2"/>
  <text x="60" y="448" font-family="Georgia, serif" font-size="9" fill="#9e3b2e" text-anchor="start" font-weight="bold">Notes:</text>
  <text x="60" y="464" font-family="Georgia, serif" font-size="8" fill="#3a3530" text-anchor="start" font-style="italic">Felt rested after early night. Lower back twinge — monitor.</text>
  <rect x="500" y="88" width="264" height="400" rx="10" fill="#f6f2ee" stroke="#c9bfb2" stroke-width="1"/>
  <text x="520" y="112" font-family="Georgia, serif" font-size="11" fill="#9e3b2e" text-anchor="start" font-weight="bold">Health snapshot</text>
  <text x="520" y="132" font-family="Georgia, serif" font-size="9" fill="#6b7c3f" text-anchor="start" font-weight="bold">Streak: 14 days ✓</text>
  <text x="520" y="150" font-family="Georgia, serif" font-size="9" fill="#3a3530" text-anchor="start">Avg mood (7d): 3.8 / 5</text>
  <text x="520" y="166" font-family="Georgia, serif" font-size="9" fill="#3a3530" text-anchor="start">Avg sleep (7d): 7.2h</text>
  <text x="520" y="182" font-family="Georgia, serif" font-size="9" fill="#3a3530" text-anchor="start">Avg energy (7d): 6.5 / 10</text>
  <rect x="520" y="198" width="224" height="2" fill="#c9bfb2"/>
  <text x="520" y="216" font-family="Georgia, serif" font-size="9" fill="#9e3b2e" text-anchor="start" font-weight="bold">Upcoming:</text>
  <text x="520" y="232" font-family="Georgia, serif" font-size="9" fill="#d35b2d" text-anchor="start" font-weight="bold">📅  GP annual check · Jun 4</text>
  <text x="520" y="248" font-family="Georgia, serif" font-size="9" fill="#3a3530" text-anchor="start">📅  Dentist · Jul 8</text>
  <text x="520" y="264" font-family="Georgia, serif" font-size="9" fill="#c9bfb2" text-anchor="start">📅  Eye test due · Aug 2026</text>
  <rect x="520" y="280" width="224" height="2" fill="#c9bfb2"/>
  <text x="520" y="298" font-family="Georgia, serif" font-size="9" fill="#9e3b2e" text-anchor="start" font-weight="bold">Care alerts:</text>
  <text x="520" y="314" font-family="Georgia, serif" font-size="8" fill="#c9922d" text-anchor="start">⚠  Lower back — 3 day pattern</text>
  <text x="520" y="328" font-family="Georgia, serif" font-size="8" fill="#c9bfb2" text-anchor="start">   Suggest: desk stretch routine</text>
  <text x="520" y="346" font-family="Georgia, serif" font-size="8" fill="#6b7c3f" text-anchor="start">✓  BP consistently healthy</text>
  <text x="520" y="362" font-family="Georgia, serif" font-size="8" fill="#6b7c3f" text-anchor="start">✓  Sleep improving this week</text>
  <rect x="520" y="378" width="224" height="2" fill="#c9bfb2"/>
  <text x="520" y="398" font-family="Georgia, serif" font-size="8" fill="#d35b2d" text-anchor="start" font-style="italic">"My lower back has been</text>
  <text x="520" y="412" font-family="Georgia, serif" font-size="8" fill="#d35b2d" text-anchor="start" font-style="italic">sore for 3 days — should</text>
  <text x="520" y="426" font-family="Georgia, serif" font-size="8" fill="#d35b2d" text-anchor="start" font-style="italic">I see a physio or wait?"</text>
  <text x="520" y="452" font-family="Georgia, serif" font-size="8" fill="#c9bfb2" text-anchor="start">Check-ins: 87 · Since Jan 1</text>
  <text x="760" y="520" font-family="Georgia, serif" font-size="8" fill="#c9bfb2" text-anchor="end">via Care Check · Glee-fully Toolbox</text>
</svg>