<svg xmlns="http://www.w3.org/2000/svg" viewBox="0 0 800 534" width="800" height="534" role="img" aria-label="A retro-bright habit tracker showing a contribution-graph-style grid of daily check-ins, streak counters, and completion rings">
  <defs>
    <filter id="sc" x="-5%" y="-5%" width="110%" height="115%">
      <feDropShadow dx="0" dy="2" stdDeviation="3" flood-color="#9e3b2e" flood-opacity="0.12"/>
    </filter>
  </defs>
  <rect width="800" height="534" fill="#f6f2ee"/>
  <rect x="0" y="0" width="800" height="6" fill="#d35b2d"/>
  <rect x="24" y="22" width="752" height="490" rx="14" fill="#e8e3dc" stroke="#c9bfb2" stroke-width="1.5" filter="url(#sc)"/>
  <rect x="24" y="22" width="752" height="52" rx="14" fill="#d35b2d"/>
  <rect x="24" y="52" width="752" height="22" fill="#d35b2d"/>
  <text x="48" y="54" font-family="Georgia, serif" font-size="18" font-weight="bold" fill="#f6f2ee" letter-spacing="0.5">Snappy Count</text>
  <text x="48" y="70" font-family="Georgia, serif" font-size="11" fill="#f6f2ee" opacity="0.8" font-style="italic">Tiny counts. Big change. One habit at a time.</text>
  <circle cx="720" cy="38" r="7" fill="#f6f2ee" opacity="0.3"/>
  <circle cx="738" cy="38" r="7" fill="#f6f2ee" opacity="0.5"/>
  <circle cx="756" cy="38" r="7" fill="#f6f2ee" opacity="0.7"/>
  <rect x="48" y="96" width="80" height="22" rx="11" fill="#d35b2d"/>
  <text x="88" y="110" font-family="Georgia, serif" font-size="9" fill="#f6f2ee" text-anchor="middle">💧 Water</text>
  <rect x="136" y="96" width="68" height="22" rx="11" fill="#e8e3dc"/>
  <text x="170" y="110" font-family="Georgia, serif" font-size="9" fill="#9e3b2e" text-anchor="middle">🏋️ Gym</text>
  <rect x="212" y="96" width="72" height="22" rx="11" fill="#e8e3dc"/>
  <text x="248" y="110" font-family="Georgia, serif" font-size="9" fill="#9e3b2e" text-anchor="middle">📚 Reading</text>
  <rect x="292" y="96" width="76" height="22" rx="11" fill="#e8e3dc"/>
  <text x="330" y="110" font-family="Georgia, serif" font-size="9" fill="#9e3b2e" text-anchor="middle">🧘 Meditate</text>
  <rect x="376" y="96" width="72" height="22" rx="11" fill="#e8e3dc"/>
  <text x="412" y="110" font-family="Georgia, serif" font-size="9" fill="#9e3b2e" text-anchor="middle">🥗 Veggies</text>
  <rect x="40" y="126" width="480" height="240" rx="10" fill="#fff" stroke="#c9bfb2" stroke-width="1"/>
  <text x="280" y="148" font-family="Georgia, serif" font-size="11" fill="#9e3b2e" text-anchor="middle" font-weight="bold">💧  Water — 8 glasses/day  (May 2026)</text>
  <text x="100" y="170" font-family="Georgia, serif" font-size="7" fill="#c9bfb2" text-anchor="middle">W1</text>
  <text x="178" y="170" font-family="Georgia, serif" font-size="7" fill="#c9bfb2" text-anchor="middle">W2</text>
  <text x="256" y="170" font-family="Georgia, serif" font-size="7" fill="#c9bfb2" text-anchor="middle">W3</text>
  <text x="334" y="170" font-family="Georgia, serif" font-size="7" fill="#c9bfb2" text-anchor="middle">W4</text>
  <text x="412" y="170" font-family="Georgia, serif" font-size="7" fill="#c9bfb2" text-anchor="middle">W5</text>
  <rect x="64" y="178" width="28" height="28" rx="4" fill="#d35b2d"/>
  <rect x="98" y="178" width="28" height="28" rx="4" fill="#d35b2d"/>
  <rect x="132" y="178" width="28" height="28" rx="4" fill="#d35b2d"/>
  <rect x="166" y="178" width="28" height="28" rx="4" fill="#d35b2d"/>
  <rect x="200" y="178" width="28" height="28" rx="4" fill="#c9922d"/>
  <rect x="234" y="178" width="28" height="28" rx="4" fill="#d35b2d"/>
  <rect x="268" y="178" width="28" height="28" rx="4" fill="#d35b2d"/>
  <rect x="302" y="178" width="28" height="28" rx="4" fill="#d35b2d"/>
  <rect x="336" y="178" width="28" height="28" rx="4" fill="#e8e3dc" stroke="#c9bfb2" stroke-width="1"/>
  <rect x="370" y="178" width="28" height="28" rx="4" fill="#d35b2d"/>
  <rect x="404" y="178" width="28" height="28" rx="4" fill="#d35b2d"/>
  <rect x="438" y="178" width="28" height="28" rx="4" fill="#d35b2d"/>
  <rect x="64" y="212" width="28" height="28" rx="4" fill="#d35b2d"/>
  <rect x="98" y="212" width="28" height="28" rx="4" fill="#d35b2d"/>
  <rect x="132" y="212" width="28" height="28" rx="4" fill="#e8e3dc" stroke="#c9bfb2" stroke-width="1"/>
  <rect x="166" y="212" width="28" height="28" rx="4" fill="#d35b2d"/>
  <rect x="200" y="212" width="28" height="28" rx="4" fill="#d35b2d"/>
  <rect x="234" y="212" width="28" height="28" rx="4" fill="#d35b2d"/>
  <rect x="268" y="212" width="28" height="28" rx="4" fill="#d35b2d"/>
  <rect x="302" y="212" width="28" height="28" rx="4" fill="#d35b2d"/>
  <rect x="336" y="212" width="28" height="28" rx="4" fill="#d35b2d"/>
  <rect x="370" y="212" width="28" height="28" rx="4" fill="#c9922d"/>
  <rect x="404" y="212" width="28" height="28" rx="4" fill="#d35b2d"/>
  <rect x="438" y="212" width="28" height="28" rx="4" fill="#d35b2d"/>
  <rect x="64" y="246" width="28" height="28" rx="4" fill="#c9922d"/>
  <rect x="98" y="246" width="28" height="28" rx="4" fill="#d35b2d"/>
  <rect x="132" y="246" width="28" height="28" rx="4" fill="#d35b2d"/>
  <rect x="166" y="246" width="28" height="28" rx="4" fill="#d35b2d"/>
  <rect x="200" y="246" width="28" height="28" rx="4" fill="#d35b2d"/>
  <rect x="234" y="246" width="28" height="28" rx="4" fill="#d35b2d"/>
  <rect x="268" y="246" width="28" height="28" rx="4" fill="#d35b2d"/>
  <rect x="302" y="246" width="28" height="28" rx="4" fill="#d35b2d"/>
  <rect x="336" y="246" width="28" height="28" rx="4" fill="#d35b2d"/>
  <rect x="370" y="246" width="28" height="28" rx="4" fill="#d35b2d"/>
  <rect x="404" y="246" width="28" height="28" rx="4" fill="#d35b2d"/>
  <rect x="438" y="246" width="28" height="28" rx="4" fill="#e8e3dc" stroke="#c9bfb2" stroke-width="1"/>
  <text x="438" y="286" font-family="Georgia, serif" font-size="7" fill="#d35b2d" text-anchor="middle">today</text>
  <polygon points="452,276 438,290 424,276" fill="#d35b2d"/>
  <text x="280" y="320" font-family="Georgia, serif" font-size="9" fill="#d35b2d" text-anchor="middle" font-weight="bold">25 / 27 days · 93% completion · 🔥 12-day streak</text>
  <text x="280" y="338" font-family="Georgia, serif" font-size="8" fill="#c9bfb2" text-anchor="middle">Best streak: 14 days (Apr 8–21) · Avg: 7.4 glasses/day</text>
  <text x="280" y="352" font-family="Georgia, serif" font-size="8" fill="#c9922d" text-anchor="middle">Miss: 2 days (May 9, 25) — both on high-stress deadline days</text>
  <rect x="40" y="380" width="480" height="108" rx="10" fill="#f6f2ee" stroke="#c9bfb2" stroke-width="1"/>
  <text x="60" y="404" font-family="Georgia, serif" font-size="10" fill="#9e3b2e" text-anchor="start" font-weight="bold">All habits — today:</text>
  <circle cx="170" cy="430" r="24" fill="none" stroke="#d35b2d" stroke-width="5" stroke-dasharray="75,25" stroke-linecap="round"/>
  <text x="170" y="434" font-family="Georgia, serif" font-size="10" fill="#3a3530" text-anchor="middle">💧</text>
  <text x="170" y="458" font-family="Georgia, serif" font-size="7" fill="#d35b2d" text-anchor="middle">100%</text>
  <circle cx="240" cy="430" r="24" fill="none" stroke="#6b7c3f" stroke-width="5" stroke-dasharray="50,50" stroke-linecap="round"/>
  <text x="240" y="434" font-family="Georgia, serif" font-size="10" fill="#3a3530" text-anchor="middle">🏋️</text>
  <text x="240" y="458" font-family="Georgia, serif" font-size="7" fill="#6b7c3f" text-anchor="middle">done ✓</text>
  <circle cx="310" cy="430" r="24" fill="none" stroke="#c9922d" stroke-width="5" stroke-dasharray="38,62" stroke-linecap="round"/>
  <text x="310" y="434" font-family="Georgia, serif" font-size="10" fill="#3a3530" text-anchor="middle">📚</text>
  <text x="310" y="458" font-family="Georgia, serif" font-size="7" fill="#c9922d" text-anchor="middle">15/30m</text>
  <circle cx="380" cy="430" r="24" fill="none" stroke="#e8e3dc" stroke-width="5" stroke-dasharray="0,100" stroke-linecap="round"/>
  <text x="380" y="434" font-family="Georgia, serif" font-size="10" fill="#3a3530" text-anchor="middle">🧘</text>
  <text x="380" y="458" font-family="Georgia, serif" font-size="7" fill="#c9bfb2" text-anchor="middle">not yet</text>
  <circle cx="450" cy="430" r="24" fill="none" stroke="#6b7c3f" stroke-width="5" stroke-dasharray="75,25" stroke-linecap="round"/>
  <text x="450" y="434" font-family="Georgia, serif" font-size="10" fill="#3a3530" text-anchor="middle">🥗</text>
  <text x="450" y="458" font-family="Georgia, serif" font-size="7" fill="#6b7c3f" text-anchor="middle">3/4 ✓</text>
  <text x="60" y="476" font-family="Georgia, serif" font-size="9" fill="#d35b2d" text-anchor="start" font-style="italic">"Log my meditation — 10 min · Done!" → +1 logged</text>
  <text x="760" y="520" font-family="Georgia, serif" font-size="8" fill="#c9bfb2" text-anchor="end">via Snappy Count · Glee-fully Toolbox</text>
</svg>