<svg xmlns="http://www.w3.org/2000/svg" viewBox="0 0 800 534" width="800" height="534" role="img" aria-label="A retro-bright medication management dashboard showing daily pill schedule with time slots, stock indicators and refill reminders">
  <defs>
    <filter id="mm" x="-5%" y="-5%" width="110%" height="115%">
      <feDropShadow dx="0" dy="2" stdDeviation="3" flood-color="#9e3b2e" flood-opacity="0.12"/>
    </filter>
  </defs>
  <rect width="800" height="534" fill="#f6f2ee"/>
  <rect x="0" y="0" width="800" height="6" fill="#d35b2d"/>
  <rect x="24" y="22" width="752" height="490" rx="14" fill="#e8e3dc" stroke="#c9bfb2" stroke-width="1.5" filter="url(#mm)"/>
  <rect x="24" y="22" width="752" height="52" rx="14" fill="#d35b2d"/>
  <rect x="24" y="52" width="752" height="22" fill="#d35b2d"/>
  <text x="48" y="54" font-family="Georgia, serif" font-size="18" font-weight="bold" fill="#f6f2ee" letter-spacing="0.5">Medi Minder</text>
  <text x="48" y="70" font-family="Georgia, serif" font-size="11" fill="#f6f2ee" opacity="0.8" font-style="italic">The right med. The right time. Never forgotten.</text>
  <circle cx="720" cy="38" r="7" fill="#f6f2ee" opacity="0.3"/>
  <circle cx="738" cy="38" r="7" fill="#f6f2ee" opacity="0.5"/>
  <circle cx="756" cy="38" r="7" fill="#f6f2ee" opacity="0.7"/>
  <rect x="40" y="88" width="440" height="400" rx="10" fill="#fff" stroke="#c9bfb2" stroke-width="1"/>
  <rect x="40" y="88" width="440" height="28" rx="10" fill="#d35b2d"/>
  <text x="260" y="107" font-family="Georgia, serif" font-size="12" fill="#f6f2ee" text-anchor="middle" font-weight="bold">Medication Schedule — May 27, 2026</text>
  <rect x="60" y="126" width="400" height="60" rx="7" fill="#6b7c3f"/>
  <text x="76" y="146" font-family="Georgia, serif" font-size="10" fill="#f6f2ee" text-anchor="start" font-weight="bold">08:00 AM  · Morning</text>
  <text x="76" y="162" font-family="Georgia, serif" font-size="9" fill="#f6f2ee" text-anchor="start">💊  Metformin 500mg  · ✓ Taken at 07:58</text>
  <text x="76" y="175" font-family="Georgia, serif" font-size="9" fill="#f6f2ee" text-anchor="start">💊  Vitamin D3 1000IU  · ✓ Taken at 08:02</text>
  <rect x="60" y="194" width="400" height="48" rx="7" fill="#fff" stroke="#c9bfb2" stroke-width="1"/>
  <text x="76" y="214" font-family="Georgia, serif" font-size="10" fill="#3a3530" text-anchor="start" font-weight="bold">12:00 PM  · Lunch</text>
  <text x="76" y="229" font-family="Georgia, serif" font-size="9" fill="#c9922d" text-anchor="start">💊  Metformin 500mg  · ✓ Taken at 12:15 (15 min late)</text>
  <rect x="60" y="250" width="400" height="60" rx="7" fill="#c9922d"/>
  <text x="76" y="270" font-family="Georgia, serif" font-size="10" fill="#f6f2ee" text-anchor="start" font-weight="bold">06:00 PM  · Evening — DUE in 2h 40m</text>
  <text x="76" y="285" font-family="Georgia, serif" font-size="9" fill="#f6f2ee" text-anchor="start">💊  Metformin 500mg</text>
  <text x="76" y="298" font-family="Georgia, serif" font-size="9" fill="#f6f2ee" text-anchor="start">🫧  Omega-3 1000mg  · Take with food</text>
  <rect x="60" y="318" width="400" height="48" rx="7" fill="#f6f2ee" stroke="#c9bfb2" stroke-width="1"/>
  <text x="76" y="338" font-family="Georgia, serif" font-size="10" fill="#c9bfb2" text-anchor="start" font-weight="bold">10:00 PM  · Bedtime</text>
  <text x="76" y="353" font-family="Georgia, serif" font-size="9" fill="#c9bfb2" text-anchor="start">🌙  Melatonin 1mg  · As needed (optional)</text>
  <rect x="60" y="374" width="400" height="40" rx="7" fill="#f6f2ee" stroke="#c9bfb2" stroke-width="1"/>
  <text x="76" y="394" font-family="Georgia, serif" font-size="9" fill="#c9bfb2" text-anchor="start">As needed:  Ibuprofen 400mg (max 3×/day · with food)</text>
  <rect x="60" y="422" width="400" height="48" rx="7" fill="#d35b2d"/>
  <text x="76" y="440" font-family="Georgia, serif" font-size="9" fill="#f6f2ee" text-anchor="start" font-weight="bold">⚠  Interaction note: Ibuprofen + Metformin</text>
  <text x="76" y="455" font-family="Georgia, serif" font-size="8" fill="#f6f2ee" text-anchor="start">Avoid NSAIDs if possible — ask GP about alternatives</text>
  <rect x="500" y="88" width="264" height="400" rx="10" fill="#f6f2ee" stroke="#c9bfb2" stroke-width="1"/>
  <text x="520" y="112" font-family="Georgia, serif" font-size="11" fill="#9e3b2e" text-anchor="start" font-weight="bold">Medicine cabinet</text>
  <text x="520" y="134" font-family="Georgia, serif" font-size="9" fill="#3a3530" text-anchor="start" font-weight="bold">Metformin 500mg</text>
  <rect x="520" y="142" width="224" height="8" rx="3" fill="#e8e3dc"/>
  <rect x="520" y="142" width="134" height="8" rx="3" fill="#6b7c3f"/>
  <text x="520" y="164" font-family="Georgia, serif" font-size="8" fill="#6b7c3f" text-anchor="start">60% remaining · Refill by Jun 10</text>
  <text x="520" y="184" font-family="Georgia, serif" font-size="9" fill="#3a3530" text-anchor="start" font-weight="bold">Vitamin D3 1000IU</text>
  <rect x="520" y="192" width="224" height="8" rx="3" fill="#e8e3dc"/>
  <rect x="520" y="192" width="212" height="8" rx="3" fill="#6b7c3f"/>
  <text x="520" y="214" font-family="Georgia, serif" font-size="8" fill="#6b7c3f" text-anchor="start">94% remaining · Plenty of stock</text>
  <text x="520" y="234" font-family="Georgia, serif" font-size="9" fill="#3a3530" text-anchor="start" font-weight="bold">Omega-3 1000mg</text>
  <rect x="520" y="242" width="224" height="8" rx="3" fill="#e8e3dc"/>
  <rect x="520" y="242" width="90" height="8" rx="3" fill="#c9922d"/>
  <text x="520" y="264" font-family="Georgia, serif" font-size="8" fill="#c9922d" text-anchor="start">40% remaining · Order this week</text>
  <text x="520" y="284" font-family="Georgia, serif" font-size="9" fill="#3a3530" text-anchor="start" font-weight="bold">Melatonin 1mg</text>
  <rect x="520" y="292" width="224" height="8" rx="3" fill="#e8e3dc"/>
  <rect x="520" y="292" width="56" height="8" rx="3" fill="#d35b2d"/>
  <text x="520" y="314" font-family="Georgia, serif" font-size="8" fill="#d35b2d" text-anchor="start" font-weight="bold">25% remaining · ORDER SOON ⚠</text>
  <rect x="520" y="330" width="224" height="2" fill="#c9bfb2"/>
  <text x="520" y="350" font-family="Georgia, serif" font-size="9" fill="#9e3b2e" text-anchor="start" font-weight="bold">Adherence this month:</text>
  <rect x="520" y="358" width="224" height="10" rx="3" fill="#e8e3dc"/>
  <rect x="520" y="358" width="190" height="10" rx="3" fill="#6b7c3f"/>
  <text x="520" y="382" font-family="Georgia, serif" font-size="8" fill="#6b7c3f" text-anchor="start">87% on time ✓ (target: 85%)</text>
  <text x="520" y="396" font-family="Georgia, serif" font-size="8" fill="#c9bfb2" text-anchor="start">Late doses: 3 · Missed: 2</text>
  <rect x="520" y="412" width="224" height="2" fill="#c9bfb2"/>
  <text x="520" y="432" font-family="Georgia, serif" font-size="8" fill="#d35b2d" text-anchor="start" font-style="italic">"Can I take ibuprofen</text>
  <text x="520" y="446" font-family="Georgia, serif" font-size="8" fill="#d35b2d" text-anchor="start" font-style="italic">with metformin for a</text>
  <text x="520" y="460" font-family="Georgia, serif" font-size="8" fill="#d35b2d" text-anchor="start" font-style="italic">headache today?"</text>
  <text x="520" y="476" font-family="Georgia, serif" font-size="7" fill="#c9bfb2" text-anchor="start">Medi Minder checks · flags · advises.</text>
  <text x="760" y="520" font-family="Georgia, serif" font-size="8" fill="#c9bfb2" text-anchor="end">via Medi Minder · Glee-fully Toolbox</text>
</svg>