<svg xmlns="http://www.w3.org/2000/svg" viewBox="0 0 800 534" width="800" height="534" role="img" aria-label="A retro-bright bird and nesting site tracker showing a life-list with species cards, nest location pins and seasonal migration guide">
  <defs>
    <filter id="rw" x="-5%" y="-5%" width="110%" height="115%">
      <feDropShadow dx="0" dy="2" stdDeviation="3" flood-color="#9e3b2e" flood-opacity="0.12"/>
    </filter>
  </defs>
  <rect width="800" height="534" fill="#f6f2ee"/>
  <rect x="0" y="0" width="800" height="6" fill="#d35b2d"/>
  <rect x="24" y="22" width="752" height="490" rx="14" fill="#e8e3dc" stroke="#c9bfb2" stroke-width="1.5" filter="url(#rw)"/>
  <rect x="24" y="22" width="752" height="52" rx="14" fill="#d35b2d"/>
  <rect x="24" y="52" width="752" height="22" fill="#d35b2d"/>
  <text x="48" y="54" font-family="Georgia, serif" font-size="18" font-weight="bold" fill="#f6f2ee" letter-spacing="0.5">Roost Wrangler</text>
  <text x="48" y="70" font-family="Georgia, serif" font-size="11" fill="#f6f2ee" opacity="0.8" font-style="italic">Track the birds. Find the nests. Build the life list.</text>
  <circle cx="720" cy="38" r="7" fill="#f6f2ee" opacity="0.3"/>
  <circle cx="738" cy="38" r="7" fill="#f6f2ee" opacity="0.5"/>
  <circle cx="756" cy="38" r="7" fill="#f6f2ee" opacity="0.7"/>
  <rect x="40" y="88" width="380" height="400" rx="10" fill="#fff" stroke="#c9bfb2" stroke-width="1"/>
  <text x="230" y="112" font-family="Georgia, serif" font-size="12" fill="#9e3b2e" text-anchor="middle" font-weight="bold">🐦  My Life List</text>
  <rect x="60" y="122" width="340" height="46" rx="6" fill="#fff" stroke="#c9bfb2" stroke-width="1"/>
  <rect x="60" y="122" width="4" height="46" fill="#2d7c7c"/>
  <text x="76" y="138" font-family="Georgia, serif" font-size="10" fill="#3a3530" text-anchor="start" font-weight="bold">Ring-necked Parakeet</text>
  <text x="76" y="152" font-family="Georgia, serif" font-size="8" fill="#c9bfb2" text-anchor="start">Psittacula krameri · Regents Park · May 25</text>
  <rect x="60" y="176" width="340" height="46" rx="6" fill="#fff" stroke="#c9bfb2" stroke-width="1"/>
  <rect x="60" y="176" width="4" height="46" fill="#2d7c7c"/>
  <text x="76" y="192" font-family="Georgia, serif" font-size="10" fill="#3a3530" text-anchor="start" font-weight="bold">Peregrine Falcon</text>
  <text x="76" y="206" font-family="Georgia, serif" font-size="8" fill="#c9bfb2" text-anchor="start">Falco peregrinus · Tesco carpark E8 · May 20</text>
  <rect x="60" y="230" width="340" height="46" rx="6" fill="#fff" stroke="#c9bfb2" stroke-width="1"/>
  <rect x="60" y="230" width="4" height="46" fill="#2d7c7c"/>
  <text x="76" y="246" font-family="Georgia, serif" font-size="10" fill="#3a3530" text-anchor="start" font-weight="bold">Eurasian Jackdaw</text>
  <text x="76" y="260" font-family="Georgia, serif" font-size="8" fill="#c9bfb2" text-anchor="start">Corvus monedula · Hackney Wick · May 18</text>
  <rect x="60" y="284" width="340" height="46" rx="6" fill="#fff" stroke="#c9bfb2" stroke-width="1"/>
  <rect x="60" y="284" width="4" height="46" fill="#2d7c7c"/>
  <text x="76" y="300" font-family="Georgia, serif" font-size="10" fill="#3a3530" text-anchor="start" font-weight="bold">Tawny Owl (heard)</text>
  <text x="76" y="314" font-family="Georgia, serif" font-size="8" fill="#c9bfb2" text-anchor="start">Strix aluco · Epping Forest · May 10</text>
  <rect x="60" y="338" width="340" height="46" rx="6" fill="#fff" stroke="#c9bfb2" stroke-width="1"/>
  <rect x="60" y="338" width="4" height="46" fill="#c9922d"/>
  <text x="76" y="354" font-family="Georgia, serif" font-size="10" fill="#c9922d" text-anchor="start" font-weight="bold">🌟  LIFER: Common Swift</text>
  <text x="76" y="368" font-family="Georgia, serif" font-size="8" fill="#c9bfb2" text-anchor="start">Apus apus · Walthamstow · June 1 (target!)</text>
  <rect x="60" y="392" width="340" height="82" rx="6" fill="#f6f2ee" stroke="#c9bfb2" stroke-width="1"/>
  <text x="230" y="420" font-family="Georgia, serif" font-size="9" fill="#9e3b2e" text-anchor="middle" font-weight="bold">Life list: 47 species · UK: 38 · Overseas: 9</text>
  <text x="230" y="436" font-family="Georgia, serif" font-size="8" fill="#3a3530" text-anchor="middle">Year ticks: 23 · Year target: 60 · 38% done</text>
  <rect x="80" y="448" width="260" height="8" rx="3" fill="#e8e3dc"/>
  <rect x="80" y="448" width="95" height="8" rx="3" fill="#2d7c7c"/>
  <text x="80" y="464" font-family="Georgia, serif" font-size="8" fill="#2d7c7c" text-anchor="start">38% of year target reached</text>
  <rect x="440" y="88" width="324" height="200" rx="10" fill="#f6f2ee" stroke="#c9bfb2" stroke-width="1"/>
  <text x="460" y="112" font-family="Georgia, serif" font-size="11" fill="#9e3b2e" text-anchor="start" font-weight="bold">Nest sites near you</text>
  <rect x="460" y="122" width="284" height="42" rx="6" fill="#fff" stroke="#c9bfb2" stroke-width="1"/>
  <rect x="460" y="122" width="4" height="42" fill="#d35b2d"/>
  <text x="470" y="140" font-family="Georgia, serif" font-size="9" fill="#3a3530" text-anchor="start" font-weight="bold">🦅  Peregrine nest active</text>
  <text x="470" y="154" font-family="Georgia, serif" font-size="8" fill="#c9bfb2" text-anchor="start">Tesco roof Mare St · 2 chicks ✓ · </text>
  <rect x="460" y="172" width="284" height="42" rx="6" fill="#fff" stroke="#c9bfb2" stroke-width="1"/>
  <rect x="460" y="172" width="4" height="42" fill="#c9922d"/>
  <text x="470" y="190" font-family="Georgia, serif" font-size="9" fill="#3a3530" text-anchor="start" font-weight="bold">🐦  Swift nest box colony</text>
  <text x="470" y="204" font-family="Georgia, serif" font-size="8" fill="#c9bfb2" text-anchor="start">Walthamstow wetlands · Arrive Jun 1 · </text>
  <rect x="460" y="222" width="284" height="42" rx="6" fill="#fff" stroke="#c9bfb2" stroke-width="1"/>
  <rect x="460" y="222" width="4" height="42" fill="#6b7c3f"/>
  <text x="470" y="240" font-family="Georgia, serif" font-size="9" fill="#3a3530" text-anchor="start" font-weight="bold">🦜  Parakeet roost</text>
  <text x="470" y="254" font-family="Georgia, serif" font-size="8" fill="#c9bfb2" text-anchor="start">Regents Park tall oaks · Year-round · </text>
  <rect x="440" y="302" width="324" height="186" rx="10" fill="#fff" stroke="#c9bfb2" stroke-width="1"/>
  <text x="460" y="326" font-family="Georgia, serif" font-size="11" fill="#9e3b2e" text-anchor="start" font-weight="bold">Migration alerts — June</text>
  <text x="460" y="346" font-family="Georgia, serif" font-size="9" fill="#6b7c3f" text-anchor="start" font-weight="bold">↑  Arriving:</text>
  <text x="460" y="362" font-family="Georgia, serif" font-size="9" fill="#2d7c7c" text-anchor="start">🐦  Common Swift · Jun 1–7</text>
  <text x="460" y="378" font-family="Georgia, serif" font-size="9" fill="#3a3530" text-anchor="start">🦆  Shelduck returning · mid-Jun</text>
  <text x="460" y="394" font-family="Georgia, serif" font-size="9" fill="#d35b2d" text-anchor="start" font-weight="bold">↓  Departing:</text>
  <text x="460" y="410" font-family="Georgia, serif" font-size="9" fill="#d35b2d" text-anchor="start">🐦  Cuckoo leaves UK · late Jun</text>
  <text x="460" y="426" font-family="Georgia, serif" font-size="9" fill="#c9bfb2" text-anchor="start">🦢  Canada Geese moulting · grounded!</text>
  <text x="460" y="450" font-family="Georgia, serif" font-size="8" fill="#d35b2d" text-anchor="start" font-style="italic">"Where can I see swifts</text>
  <text x="460" y="466" font-family="Georgia, serif" font-size="8" fill="#d35b2d" text-anchor="start" font-style="italic">screaming over London?"</text>
  <text x="760" y="520" font-family="Georgia, serif" font-size="8" fill="#c9bfb2" text-anchor="end">via Roost Wrangler · Glee-fully Toolbox</text>
</svg>