<svg xmlns="http://www.w3.org/2000/svg" viewBox="0 0 800 534" width="800" height="534" role="img" aria-label="A retro-bright visual identification interface showing a camera viewfinder analysing an object, with identification result and confidence meter">
  <defs>
    <filter id="ssk" x="-5%" y="-5%" width="110%" height="115%">
      <feDropShadow dx="0" dy="2" stdDeviation="3" flood-color="#9e3b2e" flood-opacity="0.12"/>
    </filter>
  </defs>
  <rect width="800" height="534" fill="#f6f2ee"/>
  <rect x="0" y="0" width="800" height="6" fill="#d35b2d"/>
  <rect x="24" y="22" width="752" height="490" rx="14" fill="#e8e3dc" stroke="#c9bfb2" stroke-width="1.5" filter="url(#ssk)"/>
  <rect x="24" y="22" width="752" height="52" rx="14" fill="#d35b2d"/>
  <rect x="24" y="52" width="752" height="22" fill="#d35b2d"/>
  <text x="48" y="54" font-family="Georgia, serif" font-size="18" font-weight="bold" fill="#f6f2ee" letter-spacing="0.5">Sight Seeker</text>
  <text x="48" y="70" font-family="Georgia, serif" font-size="11" fill="#f6f2ee" opacity="0.8" font-style="italic">Point. Describe. Identify. Everything visible to the curious eye.</text>
  <circle cx="720" cy="38" r="7" fill="#f6f2ee" opacity="0.3"/>
  <circle cx="738" cy="38" r="7" fill="#f6f2ee" opacity="0.5"/>
  <circle cx="756" cy="38" r="7" fill="#f6f2ee" opacity="0.7"/>
  <rect x="40" y="88" width="420" height="320" rx="10" fill="#3a3530" stroke="#c9bfb2" stroke-width="1"/>
  <rect x="96" y="120" width="30" height="4" fill="#d35b2d"/>
  <rect x="96" y="120" width="4" height="30" fill="#d35b2d"/>
  <rect x="280" y="120" width="30" height="4" fill="#d35b2d"/>
  <rect x="306" y="120" width="4" height="30" fill="#d35b2d"/>
  <rect x="96" y="276" width="30" height="4" fill="#d35b2d"/>
  <rect x="96" y="250" width="4" height="30" fill="#d35b2d"/>
  <rect x="280" y="276" width="30" height="4" fill="#d35b2d"/>
  <rect x="306" y="250" width="4" height="30" fill="#d35b2d"/>
  <line x1="176" y1="198" x2="236" y2="198" stroke="#d35b2d" stroke-width="1.5"/>
  <line x1="206" y1="168" x2="206" y2="228" stroke="#d35b2d" stroke-width="1.5"/>
  <ellipse cx="230" cy="156" rx="28" ry="8" fill="#c9922d" opacity="0.7"/>
  <rect x="208" y="156" width="44" height="80" rx="10" fill="#c9922d"/>
  <ellipse cx="230" cy="236" rx="28" ry="8" fill="#c9922d" opacity="0.5"/>
  <text x="230" y="202" font-family="Georgia, serif" font-size="9" fill="#f6f2ee" text-anchor="middle">?</text>
  <line x1="96" y1="190" x2="310" y2="190" stroke="#d35b2d" stroke-width="1" stroke-dasharray="8,6"/>
  <rect x="50" y="120" width="44" height="12" rx="3" fill="#3a3530"/>
  <text x="72" y="130" font-family="Georgia, serif" font-size="7" fill="#d35b2d" text-anchor="middle" font-weight="bold">LIVE</text>
  <rect x="316" y="120" width="60" height="12" rx="3" fill="#3a3530"/>
  <text x="346" y="130" font-family="Georgia, serif" font-size="7" fill="#6b7c3f" text-anchor="middle" font-weight="bold">AI SCAN</text>
  <text x="50" y="296" font-family="Georgia, serif" font-size="8" fill="#c9bfb2" text-anchor="start">Description:</text>
  <text x="50" y="310" font-family="Georgia, serif" font-size="8" fill="#f6f2ee" text-anchor="start">Tall ceramic vase · terracotta · ribbed texture · flared neck</text>
  <text x="50" y="324" font-family="Georgia, serif" font-size="8" fill="#c9bfb2" text-anchor="start">approx 28cm · displayed on white shelf</text>
  <rect x="40" y="418" width="420" height="70" rx="10" fill="#fff" stroke="#c9bfb2" stroke-width="1"/>
  <text x="60" y="440" font-family="Georgia, serif" font-size="10" fill="#9e3b2e" text-anchor="start" font-weight="bold">🎯  Identified: Studio pottery vase — mid-century Scandinavian style</text>
  <text x="60" y="456" font-family="Georgia, serif" font-size="8" fill="#c9bfb2" text-anchor="start">Likely: Gustavsberg or Royal Copenhagen influenced · 1950s–1970s · Confidence: 81%</text>
  <text x="60" y="470" font-family="Georgia, serif" font-size="8" fill="#d35b2d" text-anchor="start">Value: £40–£120 (depends on maker's mark underneath) · Ask: 'how do I find the mark?'</text>
  <rect x="480" y="88" width="284" height="400" rx="10" fill="#f6f2ee" stroke="#c9bfb2" stroke-width="1"/>
  <text x="500" y="112" font-family="Georgia, serif" font-size="11" fill="#9e3b2e" text-anchor="start" font-weight="bold">Sight Seeker can ID:</text>
  <rect x="500" y="122" width="244" height="36" rx="6" fill="#d35b2d"/>
  <text x="622" y="143" font-family="Georgia, serif" font-size="9" fill="#f6f2ee" text-anchor="middle" font-weight="bold">🏺  Antiques &amp; collectibles</text>
  <rect x="500" y="166" width="244" height="36" rx="6" fill="#6b7c3f"/>
  <text x="622" y="187" font-family="Georgia, serif" font-size="9" fill="#f6f2ee" text-anchor="middle" font-weight="bold">🌿  Plants &amp; wildflowers</text>
  <rect x="500" y="210" width="244" height="36" rx="6" fill="#c9922d"/>
  <text x="622" y="231" font-family="Georgia, serif" font-size="9" fill="#f6f2ee" text-anchor="middle" font-weight="bold">🪨  Rocks &amp; minerals</text>
  <rect x="500" y="254" width="244" height="36" rx="6" fill="#2d7c7c"/>
  <text x="622" y="275" font-family="Georgia, serif" font-size="9" fill="#f6f2ee" text-anchor="middle" font-weight="bold">🏗️  Architecture styles</text>
  <rect x="500" y="298" width="244" height="36" rx="6" fill="#fff" stroke="#c9bfb2" stroke-width="1"/>
  <text x="622" y="319" font-family="Georgia, serif" font-size="9" fill="#3a3530" text-anchor="middle" font-weight="bold">🔠  Signs &amp; symbols</text>
  <rect x="500" y="342" width="244" height="36" rx="6" fill="#fff" stroke="#c9bfb2" stroke-width="1"/>
  <text x="622" y="363" font-family="Georgia, serif" font-size="9" fill="#3a3530" text-anchor="middle" font-weight="bold">🎨  Art &amp; art movements</text>
  <rect x="500" y="386" width="244" height="36" rx="6" fill="#fff" stroke="#c9bfb2" stroke-width="1"/>
  <text x="622" y="407" font-family="Georgia, serif" font-size="9" fill="#3a3530" text-anchor="middle" font-weight="bold">🍄  Fungi &amp; lichens</text>
  <text x="500" y="444" font-family="Georgia, serif" font-size="8" fill="#d35b2d" text-anchor="start" font-style="italic">"What style is this building?"</text>
  <text x="500" y="458" font-family="Georgia, serif" font-size="8" fill="#d35b2d" text-anchor="start" font-style="italic">"Is this mushroom edible?"</text>
  <text x="500" y="470" font-family="Georgia, serif" font-size="9" fill="#9e3b2e" text-anchor="start" font-weight="bold">Point. Describe. Discover.</text>
  <text x="760" y="520" font-family="Georgia, serif" font-size="8" fill="#c9bfb2" text-anchor="end">via Sight Seeker · Glee-fully Toolbox</text>
</svg>